<svg id="blocks" xmlns="http://www.w3.org/2000/svg" viewBox="0 0 462.9 510.1">
  <defs>
    <style>
            #green {
                animation: descend 1s .3s forwards;
                opacity: 0;
            }

            #red {
                animation: descend 1s .5s forwards;
                opacity: 0;
            }

            #orange {
                animation: descend 1s .7s forwards;
                opacity: 0;
            }

            #blue {
                animation: descend 1s .9s forwards;
                opacity: 0;
            }

            #lightgreen{
                animation: descend 1s 1.1s forwards;
                opacity: 0;
            }

            #yellow {
                    animation: descend 1s 1.4s forwards;
                opacity: 0;
            }

            @keyframes descend {
                from {
                    opacity: 0;
                    transform: translateY(-1000px)
                }
                to {
                    opacity: 1;
                    transform: translateY(0)
                }
            }

    </style>
  </defs>
  <g id="green">
    <path d="M447 430.3v-32h-32v32h-48v-32h-32v32h-16v80h144v-80z" transform="translate(0 -.2)" fill="#7dd491"/>
    <path d="M319 430.3h128a64 64 0 01-64 64h-64v-64z" transform="translate(0 -.2)" fill="#58a066"/>
  </g>
  <g id="red">
    <path d="M447 350.7v-32h-32v32h-48v-32h-32v32h-16v80h144v-80z" transform="translate(0 -.2)" fill="#b72c4b"/>
    <path d="M319 350.7h128a64 64 0 01-64 64h-64v-64z" transform="translate(0 -.2)" fill="#e94561"/>
  </g>
  <g id="orange">
    <path fill="#f89c5b" d="M384 270.5v80H160v-80h16v-32h32v32h48v-32h32v32h48v-32h32v32h16z"/>
    <path d="M160 271.1h208a64 64 0 01-64 64H160v-64z" transform="translate(0 -.2)" fill="#ffd257"/>
  </g>
  <g id="blue">
    <path fill="#03b3e2" d="M224 191v80H0v-80h16v-32h32v32h48v-32h32v32h48v-32h32v32h16z"/>
    <path d="M0 191.6h208a64 64 0 01-64 64H0v-64z" transform="translate(0 -.2)" fill="#35d7fd"/>
  </g>
  <g id="lightgreen">
    <path d="M384 111.6v80H160v-80h16v-32h32v32h48v-32h32v32h48v-32h32v32h16z" fill="#7dd491"/>
    <path d="M160 112.2h208a64 64 0 01-64 64H160v-64z" transform="translate(0 -.2)" fill="#c6ec6b"/>
  </g>
  <g id="yellow">
    <path d="M447 32.2V.2h-32v32h-48V.2h-32v32h-16v80h144v-80z" transform="translate(0 -.2)" fill="#ffd257"/>
    <path d="M319 32.2h128a64 64 0 01-64 64h-64v-64z" transform="translate(0 -.2)" fill="#ffe8ae"/>
  </g>
</svg>
