<svg xmlns="http://www.w3.org/2000/svg" style="display: none;">
<symbol id="github" viewBox="0 0 438.549 438.549">
    <title>github</title>
    <path d="M409.132,114.573c-19.608-33.596-46.205-60.194-79.798-79.8C295.736,15.166,259.057,5.365,219.271,5.365 c-39.781,0-76.472,9.804-110.063,29.408c-33.596,19.605-60.192,46.204-79.8,79.8C9.803,148.168,0,184.854,0,224.63 c0,47.78,13.94,90.745,41.827,128.906c27.884,38.164,63.906,64.572,108.063,79.227c5.14,0.954,8.945,0.283,11.419-1.996 c2.475-2.282,3.711-5.14,3.711-8.562c0-0.571-0.049-5.708-0.144-15.417c-0.098-9.709-0.144-18.179-0.144-25.406l-6.567,1.136 c-4.187,0.767-9.469,1.092-15.846,1c-6.374-0.089-12.991-0.757-19.842-1.999c-6.854-1.231-13.229-4.086-19.13-8.559 c-5.898-4.473-10.085-10.328-12.56-17.556l-2.855-6.57c-1.903-4.374-4.899-9.233-8.992-14.559 c-4.093-5.331-8.232-8.945-12.419-10.848l-1.999-1.431c-1.332-0.951-2.568-2.098-3.711-3.429c-1.142-1.331-1.997-2.663-2.568-3.997 c-0.572-1.335-0.098-2.43,1.427-3.289c1.525-0.859,4.281-1.276,8.28-1.276l5.708,0.853c3.807,0.763,8.516,3.042,14.133,6.851 c5.614,3.806,10.229,8.754,13.846,14.842c4.38,7.806,9.657,13.754,15.846,17.847c6.184,4.093,12.419,6.136,18.699,6.136 c6.28,0,11.704-0.476,16.274-1.423c4.565-0.952,8.848-2.383,12.847-4.285c1.713-12.758,6.377-22.559,13.988-29.41 c-10.848-1.14-20.601-2.857-29.264-5.14c-8.658-2.286-17.605-5.996-26.835-11.14c-9.235-5.137-16.896-11.516-22.985-19.126 c-6.09-7.614-11.088-17.61-14.987-29.979c-3.901-12.374-5.852-26.648-5.852-42.826c0-23.035,7.52-42.637,22.557-58.817 c-7.044-17.318-6.379-36.732,1.997-58.24c5.52-1.715,13.706-0.428,24.554,3.853c10.85,4.283,18.794,7.952,23.84,10.994 c5.046,3.041,9.089,5.618,12.135,7.708c17.705-4.947,35.976-7.421,54.818-7.421s37.117,2.474,54.823,7.421l10.849-6.849 c7.419-4.57,16.18-8.758,26.262-12.565c10.088-3.805,17.802-4.853,23.134-3.138c8.562,21.509,9.325,40.922,2.279,58.24 c15.036,16.18,22.559,35.787,22.559,58.817c0,16.178-1.958,30.497-5.853,42.966c-3.9,12.471-8.941,22.457-15.125,29.979 c-6.191,7.521-13.901,13.85-23.131,18.986c-9.232,5.14-18.182,8.85-26.84,11.136c-8.662,2.286-18.415,4.004-29.263,5.146 c9.894,8.562,14.842,22.077,14.842,40.539v60.237c0,3.422,1.19,6.279,3.572,8.562c2.379,2.279,6.136,2.95,11.276,1.995 c44.163-14.653,80.185-41.062,108.068-79.226c27.88-38.161,41.825-81.126,41.825-128.906 C438.536,184.851,428.728,148.168,409.132,114.573z" />
</symbol>
    
    <symbol id="linkedin" viewBox="0 0 24 24">
        <title>linkedin</title>
        <path d="m23.994 24v-.001h.006v-8.802c0-4.306-.927-7.623-5.961-7.623-2.42 0-4.044 1.328-4.707 2.587h-.07v-2.185h-4.773v16.023h4.97v-7.934c0-2.089.396-4.109 2.983-4.109 2.549 0 2.587 2.384 2.587 4.243v7.801z" data-original="#0077B5" class="active-path" data-old_color="#0077B5" />
        <path d="m.396 7.977h4.976v16.023h-4.976z" data-original="#0077B5" class="active-path" data-old_color="#0077B5" />
        <path d="m2.882 0c-1.591 0-2.882 1.291-2.882 2.882s1.291 2.909 2.882 2.909 2.882-1.318 2.882-2.909c-.001-1.591-1.292-2.882-2.882-2.882z" data-original="#0077B5" class="active-path" data-old_color="#0077B5" />
    </symbol>
    
    <symbol id="twitter" viewBox="0 0 410.155 410.155">
        <title>twitter</title>
        <path d="M403.632,74.18c-9.113,4.041-18.573,7.229-28.28,9.537c10.696-10.164,18.738-22.877,23.275-37.067 l0,0c1.295-4.051-3.105-7.554-6.763-5.385l0,0c-13.504,8.01-28.05,14.019-43.235,17.862c-0.881,0.223-1.79,0.336-2.702,0.336 c-2.766,0-5.455-1.027-7.57-2.891c-16.156-14.239-36.935-22.081-58.508-22.081c-9.335,0-18.76,1.455-28.014,4.325 c-28.672,8.893-50.795,32.544-57.736,61.724c-2.604,10.945-3.309,21.9-2.097,32.56c0.139,1.225-0.44,2.08-0.797,2.481 c-0.627,0.703-1.516,1.106-2.439,1.106c-0.103,0-0.209-0.005-0.314-0.015c-62.762-5.831-119.358-36.068-159.363-85.14l0,0 c-2.04-2.503-5.952-2.196-7.578,0.593l0,0C13.677,65.565,9.537,80.937,9.537,96.579c0,23.972,9.631,46.563,26.36,63.032 c-7.035-1.668-13.844-4.295-20.169-7.808l0,0c-3.06-1.7-6.825,0.485-6.868,3.985l0,0c-0.438,35.612,20.412,67.3,51.646,81.569 c-0.629,0.015-1.258,0.022-1.888,0.022c-4.951,0-9.964-0.478-14.898-1.421l0,0c-3.446-0.658-6.341,2.611-5.271,5.952l0,0 c10.138,31.651,37.39,54.981,70.002,60.278c-27.066,18.169-58.585,27.753-91.39,27.753l-10.227-0.006 c-3.151,0-5.816,2.054-6.619,5.106c-0.791,3.006,0.666,6.177,3.353,7.74c36.966,21.513,79.131,32.883,121.955,32.883 c37.485,0,72.549-7.439,104.219-22.109c29.033-13.449,54.689-32.674,76.255-57.141c20.09-22.792,35.8-49.103,46.692-78.201 c10.383-27.737,15.871-57.333,15.871-85.589v-1.346c-0.001-4.537,2.051-8.806,5.631-11.712c13.585-11.03,25.415-24.014,35.16-38.591 l0,0C411.924,77.126,407.866,72.302,403.632,74.18L403.632,74.18z" data-original="#76A9EA" class="active-path" data-old_color="#76A9EA"/>
    </symbol>
    
    <symbol id="facebook" viewBox="0 0 96.124 96.123">
        <title>facebook</title>
        <path d="M72.089,0.02L59.624,0C45.62,0,36.57,9.285,36.57,23.656v10.907H24.037c-1.083,0-1.96,0.878-1.96,1.961v15.803 c0,1.083,0.878,1.96,1.96,1.96h12.533v39.876c0,1.083,0.877,1.96,1.96,1.96h16.352c1.083,0,1.96-0.878,1.96-1.96V54.287h14.654 c1.083,0,1.96-0.877,1.96-1.96l0.006-15.803c0-0.52-0.207-1.018-0.574-1.386c-0.367-0.368-0.867-0.575-1.387-0.575H56.842v-9.246 c0-4.444,1.059-6.7,6.848-6.7l8.397-0.003c1.082,0,1.959-0.878,1.959-1.96V1.98C74.046,0.899,73.17,0.022,72.089,0.02z"/>
    </symbol>

</svg>