<svg id="Layer_1" data-name="Layer 1" xmlns="http://www.w3.org/2000/svg" viewBox="0 0 445.87 512"><defs><style>.cls-1{fill:#99dbf9;}.cls-2{fill:#fff;}.cls-3{fill:#344a5e;}.cls-4{fill:#415a6b;}.cls-5{fill:none;}</style></defs><title>light-off</title><path class="cls-1" d="M281.6,391.47c6.4-21.34,19.2-40.54,36.27-55.47a145.71,145.71,0,0,0,52.26-112c0-83.2-69.33-151.47-154.66-147.2C139.73,80,77.87,144,75.73,219.73,74.67,266.67,94.93,308.27,128,336a114.43,114.43,0,0,1,37.33,55.47Z"/><path class="cls-2" d="M209.07,393.6h9.6L176,234.67h3.2a21.07,21.07,0,0,0,14.93-6.4,10.32,10.32,0,0,1,14.94,0,18.22,18.22,0,0,0,27.73,0,9.66,9.66,0,0,1,7.47-3.2,11.47,11.47,0,0,1,7.46,3.2c4.27,4.26,8.54,6.4,14.94,6.4h3.2L228.27,393.6h9.6L281.6,227.2c0-2.13,0-4.27-2.13-5.33a4.7,4.7,0,0,0-5.34,1.06c-2.13,2.14-4.26,3.2-6.4,3.2-3.2,0-5.33-1.06-8.53-3.2-4.27-4.26-8.53-6.4-13.87-6.4s-9.6,2.14-13.86,6.4a10.31,10.31,0,0,1-14.94,0c-3.2-4.26-8.53-6.4-13.86-6.4h0c-5.34,0-10.67,2.14-13.87,6.4a12.07,12.07,0,0,1-8.53,3.2c-2.14,0-5.34-1.06-6.4-3.2a4.7,4.7,0,0,0-5.34-1.06c-2.13,1.06-3.2,3.2-2.13,5.33Z"/><path class="cls-3" d="M189.87,489.6C195.2,502.4,208,512,222.93,512s27.74-9.6,33.07-22.4Z"/><path class="cls-3" d="M262.4,490.67H184.53a19.13,19.13,0,0,1-19.2-19.2V390.4H281.6v81.07A19.12,19.12,0,0,1,262.4,490.67Z"/><path class="cls-4" d="M280.53,430.93H165.33A11.83,11.83,0,0,1,153.6,419.2h0a11.83,11.83,0,0,1,11.73-11.73h115.2a11.84,11.84,0,0,1,11.74,11.73h0A11.84,11.84,0,0,1,280.53,430.93Z"/><path class="cls-4" d="M280.53,468.27H165.33a11.84,11.84,0,0,1-11.73-11.74h0a11.83,11.83,0,0,1,11.73-11.73h115.2a11.84,11.84,0,0,1,11.74,11.73h0A11.85,11.85,0,0,1,280.53,468.27Z"/><path class="cls-5" d="M222.93,0a10.69,10.69,0,0,0-10.66,10.67V46.93A10.68,10.68,0,0,0,222.93,57.6c6.4,0,10.67-4.27,10.67-10.67V10.67A10.69,10.69,0,0,0,222.93,0Z"/><path class="cls-5" d="M80,65.07A10.56,10.56,0,0,0,65.07,80l25.6,25.6A10.56,10.56,0,0,0,105.6,90.67Z"/><path class="cls-5" d="M46.93,212.27H10.67A10.68,10.68,0,0,0,0,222.93H0A10.69,10.69,0,0,0,10.67,233.6H46.93A10.69,10.69,0,0,0,57.6,222.93h0C57.6,217.6,52.27,212.27,46.93,212.27Z"/><path class="cls-5" d="M90.67,340.27l-25.6,25.6A10.56,10.56,0,1,0,80,380.8l25.6-25.6a10.56,10.56,0,0,0-14.93-14.93Z"/><path class="cls-5" d="M355.2,340.27a10.56,10.56,0,0,0-14.93,14.93l25.6,25.6a10.56,10.56,0,1,0,14.93-14.93Z"/><path class="cls-5" d="M435.2,212.27H398.93a10.68,10.68,0,0,0-10.66,10.66h0a10.68,10.68,0,0,0,10.66,10.67H435.2a10.7,10.7,0,0,0,10.67-10.67h0A10.69,10.69,0,0,0,435.2,212.27Z"/><path class="cls-5" d="M365.87,65.07l-25.6,25.6A10.56,10.56,0,0,0,355.2,105.6L380.8,80a10.56,10.56,0,1,0-14.93-14.93Z"/></svg>