<svg xmlns="http://www.w3.org/2000/svg" viewBox="0 0 1200 1200">
  <defs>
    <style>
      .cls-3{fill:#9accdb}.cls-4{fill:#e2f0e9}.cls-8{fill:#659cad}.cls-12,.cls-9{fill:#99927b}.cls-10{fill:#847d6b}.cls-11{fill:#87806c}.cls-12{opacity:.4;mix-blend-mode:multiply}.cls-13{fill:#515c1b}.cls-14{fill:#79981f}.cls-15{fill:#66801b}.cls-17{fill:#7a7462}.cls-18{fill:#a2c430}.cls-19{fill:#d0f341}.cls-20{fill:#c1db35}.cls-21{fill:#99ba38}.cls-22{fill:#8f8873}.cls-23{fill:#406e85}.cls-24{fill:#696354}.cls-25{fill:#ace5f6}.cls-28{fill:#fff75a}
    </style>
  </defs>
  <g style="isolation:isolate">
    <g id="sky">
      <path fill="#77b8cc" d="M0 0h1200v1200H0z"/>
      <path class="cls-3" d="M535.24 314H201.75c-27.08 0-49 18.81-49 42 0 23.2 22 42 49 42h57.11c15.56 0 28.18 10.8 28.18 24.13 0 13.33-12.62 24.14-28.18 24.14h-5.27c-27.08 0-49 18.81-49 42 0 23.2 22 42 49 42H483.4c27.08 0 49-18.8 49-42s-22-42-49-42h-5.27c-15.56 0-28.17-10.81-28.17-24.14S462.57 398 478.13 398h57.11c27.09 0 49-18.81 49-42 .04-23.24-21.91-42-49-42z" transform="translate(0 -.4)"/>
      <rect class="cls-3" x="335.33" y="202.86" width="155.78" height="67.9" rx="33.95"/>
      <rect class="cls-3" x="650.88" y="231.93" width="242.75" height="77.68" rx="38.84"/>
      <rect class="cls-3" x="770.8" y="453.26" width="242.75" height="77.68" rx="38.84"/>
      <path class="cls-4" d="M584.09 187.55h-5.28a40.39 40.39 0 00-76.62-17.84 27.58 27.58 0 00-48.62 17.84 23.34 23.34 0 00-22.23 23.31 23.35 23.35 0 0023.34 23.35h129.41a23.35 23.35 0 0023.34-23.35 23.34 23.34 0 00-23.34-23.31zM325.81 312.4h-4.65a35.59 35.59 0 00-67.52-15.72 24.3 24.3 0 00-42.84 15.72 20.57 20.57 0 00-19.6 20.6 20.58 20.58 0 0020.58 20.58h114a20.57 20.57 0 0020.6-20.58 20.57 20.57 0 00-20.57-20.6zM1047.5 356.12h-4.22c0-16.76-14.44-30.35-32.26-30.35a32.5 32.5 0 00-28.94 16.94 22.58 22.58 0 00-16.8-7.32c-12.16 0-22 9.28-22 20.73-9.88.43-17.76 8.11-17.76 17.52 0 9.68 8.35 17.54 18.65 17.54h103.33c10.29 0 18.64-7.86 18.64-17.54 0-9.64-8.35-17.52-18.64-17.52z" transform="translate(0 -.4)"/>
      <path d="M973.56 235.42c0 3.48-10.2 6.2-10.67 9.55s8.52 8.89 7.57 12.15-11.52 3-12.94 6.14 5.67 10.93 3.82 13.8-11.9-.35-14.14 2.24 2.38 12.07-.21 14.31-11.32-3.67-14.21-1.81-1.09 12.25-4.22 13.68-9.8-6.73-13.12-5.76-4.49 11.44-7.93 11.93-7.47-9.23-11-9.23-7.61 9.7-11 9.23-4.67-11-7.92-11.93-10 7.17-13.12 5.76-1.35-11.84-4.22-13.68-11.62 4.06-14.21 1.81 2-11.72-.21-14.32-12.28.66-14.14-2.23 5.25-10.67 3.82-13.8-12-2.83-12.94-6.14 8.06-8.72 7.57-12.16-10.67-6.06-10.67-9.54 10.2-6.2 10.67-9.54-8.52-8.9-7.57-12.16 11.52-3 12.94-6.14-5.67-10.93-3.82-13.8 11.9.35 14.14-2.23-2.38-12.08.21-14.32 11.32 3.68 14.21 1.82 1.09-12.25 4.22-13.69 9.8 6.73 13.12 5.76 4.49-11.44 7.93-11.92 7.47 9.22 10.95 9.22 7.61-9.7 11-9.22 4.67 11 7.92 11.92 10-7.17 13.12-5.76 1.35 11.84 4.22 13.69S944.4 175 947 177.23s-2 11.73.21 14.32 12.28-.65 14.14 2.23-5.25 10.67-3.82 13.8 12 2.83 12.94 6.14-8.06 8.73-7.57 12.16 10.66 6.06 10.66 9.54z" transform="translate(0 -.4)" fill="#fbcd30"/>
      <path d="M896.56 287.92a52.5 52.5 0 110-105" transform="translate(0 -.4)" fill="#fde23d"/>
      <path d="M896.56 182.92a52.5 52.5 0 010 105" transform="translate(0 -.4)" fill="#fff45a"/>
    </g>
    <g id="mountains">
      <path class="cls-8" d="M1015.46 710.97H509.23L762.3 241.28l253.16 469.69z"/>
      <path class="cls-8" d="M766.11 725.13H259.88l253.08-469.69 253.15 469.69z"/>
      <path class="cls-9" d="M939.79 765.3H325.48l307.11-569.99 307.2 569.99z"/>
      <path class="cls-10" d="M837.09 764.1h-409l204.46-568.79L837.09 764.1z"/>
      <path class="cls-11" d="M722.05 765.3H547.66l87.19-566.14 87.2 566.14z"/>
      <path class="cls-4" d="M570.32 417.57c21.11 0 21.11-21.11 42.22-21.11s21.11 21.11 42.22 21.11 21.11-21.11 42.22-21.11 21.11 21.11 42.22 21.11a23.68 23.68 0 0011.5-2.72L632.59 195.71l-108.3 201a28.57 28.57 0 013.81-.25c21.11 0 21.11 21.11 42.22 21.11z" transform="translate(0 -.4)"/>
      <path class="cls-12" d="M634.86 765.3H325.48l307.11-569.99 2.27 569.99z"/>
      <path class="cls-9" d="M645.12 773.49H162.41l241.32-447.88 241.39 447.88z"/>
      <path class="cls-10" d="M564.41 772.54H243.04L403.7 325.61l160.71 446.93z"/>
      <path class="cls-11" d="M474.02 773.49H336.99l68.51-444.86 68.52 444.86z"/>
      <path class="cls-4" d="M354.8 500.34c16.58 0 16.58-16.59 33.17-16.59s16.59 16.59 33.17 16.59 16.59-16.59 33.18-16.59 16.59 16.59 33.18 16.59a18.56 18.56 0 009-2.14L403.72 326l-85.09 158a21.64 21.64 0 013-.2c16.58-.05 16.58 16.54 33.17 16.54z" transform="translate(0 -.4)"/>
      <path class="cls-12" d="M405.51 773.49h-243.1l241.32-447.88 1.78 447.88z"/>
      <path class="cls-9" d="M1104.74 799.99H598.51L851.59 330.3l253.15 469.69z"/>
      <path class="cls-10" d="M1020.1 799H683.07l168.49-468.7L1020.1 799z"/>
      <path class="cls-11" d="M925.31 799.99H781.6l71.85-466.53 71.86 466.53z"/>
      <path class="cls-4" d="M800.28 513.51c17.39 0 17.39-17.39 34.78-17.39s17.4 17.39 34.79 17.39 17.4-17.39 34.79-17.39 17.4 17.39 34.8 17.39a19.48 19.48 0 009.47-2.24l-97.32-180.58-89.25 165.63a24 24 0 013.14-.2c17.4 0 17.4 17.39 34.8 17.39z" transform="translate(0 -.4)"/>
      <path class="cls-12" d="M853.46 799.99H598.51L851.59 330.3l1.87 469.69z"/>
    </g>
    <g id="hills">
      <path class="cls-13" d="M1105.09 788.21c-35.49-9.6-86.19-36.74-124.62-111.78-29.53-57.69-70.9-88-100.4-103.25-23.78-12.29-49.05-12.29-72.83 0-29.5 15.24-70.87 45.56-100.4 103.25C641.15 804.73 539.51 793 539.51 793l1 32.82h566.44a343.21 343.21 0 01-1.86-37.61z" transform="translate(0 -.4)"/>
      <path class="cls-13" d="M542 680.54a256.72 256.72 0 00-115-107c-27.25-12.74-56.2-12.74-83.45 0a256.72 256.72 0 00-115 107c-31.73 56.07-70.77 86.34-105.33 102.61q.06 26.07-.58 52.27H546.1z" transform="translate(0 -.4)"/>
      <path class="cls-13" d="M775.67 630.79c-35.91-48.93-86.19-74.64-122-87.57a129.18 129.18 0 00-88.54 0c-35.86 12.93-86.14 38.64-122 87.57-79.85 108.83-203.39 98.89-203.39 98.89l1.17 27.84h736.97l1.18-27.84s-123.54 9.94-203.39-98.89z" transform="translate(0 -.4)"/>
      <path class="cls-14" d="M779.3 761.18l-1 22.05H128.59l-1-22.05s108.89 7.87 179.27-78.35c31.65-38.77 76-59.14 107.58-69.38a126 126 0 0178 0c5.95 1.93 12.35 4.21 19 6.91q4.42 1.8 9 3.83C547.17 636.1 577 654.58 600 682.83c70.4 86.22 179.3 78.35 179.3 78.35z" transform="translate(0 -.4)"/>
      <path class="cls-15" d="M569.48 694.72v130.93h-9V694.72a13.23 13.23 0 00-13.22-13.21h-12.48a23.33 23.33 0 01-23.3-23.31v-37.84q4.42 1.8 9 3.83v34a14.32 14.32 0 0014.3 14.31h12.48a22.24 22.24 0 0122.22 22.22z" transform="translate(0 -.4)"/>
      <path d="M912.89 685.1c-33.47-48.93-80.34-74.65-113.76-87.57a112.78 112.78 0 00-82.54 0c-33.43 12.92-80.3 38.64-113.77 87.57-74.43 108.82-189.6 98.9-189.6 98.9l1.1 27.83h687.08l1.09-27.83s-115.16 9.92-189.6-98.9z" transform="translate(0 -.4)" fill="#8ead28"/>
      <path class="cls-17" d="M662.31 639.1h9.05v50.33h-9.05z"/>
      <path class="cls-18" d="M666.26 667.89a37.93 37.93 0 110-75.86" transform="translate(0 -.4)"/>
      <path class="cls-19" d="M666.26 592a37.93 37.93 0 110 75.86" transform="translate(0 -.4)"/>
      <rect class="cls-18" x="668.89" y="622.2" width="11.38" height="3.39" rx="1.58"/>
      <rect class="cls-18" x="673.87" y="639.97" width="11.23" height="3.24" rx="1.62"/>
      <rect class="cls-18" x="685.87" y="611.92" width="8.81" height="2.88" rx="1.44"/>
      <rect class="cls-18" x="671.83" y="599.98" width="8.81" height="2.66" rx="1.14"/>
      <rect class="cls-18" x="692.06" y="629.56" width="8.81" height="2.66" rx="1.14"/>
      <rect class="cls-18" x="675.86" y="654.46" width="8.81" height="2.66" rx="1.14"/>
      <path class="cls-19" d="M720.9 563.56l36.96 124.07H720.9"/>
      <path class="cls-18" d="M720.9 687.63h-36.96l36.96-124.07"/>
      <path class="cls-18" d="M720.9 591.05l5.1-4.32h-10.19l5.09 4.32zM727.32 609.77l5.1-4.32h-10.19l5.09 4.32zM720.9 628.35l6.51-5.52h-13.02l6.51 5.52zM733.92 643.43l6.51-5.52h-13.02l6.51 5.52zM720.9 665.89l8.35-7.08h-16.7l8.35 7.08zM740.43 683.03l8.35-7.08h-16.7l8.35 7.08z"/>
      <path class="cls-17" d="M534.6 628.7h5.43v30.23h-5.43z"/>
      <path class="cls-18" d="M537 646.14a22.78 22.78 0 010-45.55" transform="translate(0 -.4)"/>
      <path class="cls-19" d="M537 600.59a22.78 22.78 0 110 45.55" transform="translate(0 -.4)"/>
      <rect class="cls-18" x="538.55" y="618.55" width="6.83" height="2.04" rx=".95"/>
      <rect class="cls-18" x="541.54" y="629.22" width="6.74" height="1.94" rx=".97"/>
      <rect class="cls-18" x="548.75" y="612.38" width="5.29" height="1.73" rx=".87"/>
      <rect class="cls-18" x="540.32" y="605.21" width="5.29" height="1.6" rx=".69"/>
      <rect class="cls-18" x="552.47" y="622.97" width="5.29" height="1.6" rx=".69"/>
      <rect class="cls-18" x="542.74" y="637.92" width="5.29" height="1.6" rx=".69"/>
      <path class="cls-17" d="M484.11 611.35h6.24v34.71h-6.24z"/>
      <path class="cls-18" d="M486.84 631.32a26.16 26.16 0 110-52.31" transform="translate(0 -.4)"/>
      <path class="cls-19" d="M486.84 579a26.16 26.16 0 110 52.31" transform="translate(0 -.4)"/>
      <rect class="cls-18" x="488.65" y="599.69" width="7.85" height="2.34" rx="1.09"/>
      <rect class="cls-18" x="492.09" y="611.95" width="7.74" height="2.23" rx="1.12"/>
      <rect class="cls-18" x="500.36" y="592.6" width="6.08" height="1.99" rx=".99"/>
      <rect class="cls-18" x="490.68" y="584.37" width="6.08" height="1.83" rx=".79"/>
      <rect class="cls-18" x="504.63" y="604.76" width="6.08" height="1.83" rx=".79"/>
      <rect class="cls-18" x="493.46" y="621.94" width="6.08" height="1.83" rx=".79"/>
    </g>
    <g id="main">
      <path class="cls-17" d="M1063.14 718.84h15.93v88.63h-15.93z"/>
      <path class="cls-18" d="M1071.1 753.76a66.79 66.79 0 110-133.58" transform="translate(0 -.4)"/>
      <path class="cls-19" d="M1071.1 620.18a66.79 66.79 0 110 133.58" transform="translate(0 -.4)"/>
      <rect class="cls-18" x="1075.73" y="673.61" width="20.04" height="5.98" rx="2.79"/>
      <rect class="cls-18" x="1084.5" y="704.91" width="19.77" height="5.7" rx="2.85"/>
      <rect class="cls-18" x="1105.63" y="655.51" width="15.52" height="5.08" rx="2.54"/>
      <rect class="cls-18" x="1080.91" y="634.49" width="15.52" height="4.68" rx="2.01"/>
      <rect class="cls-18" x="1116.54" y="686.57" width="15.52" height="4.68" rx="2.01"/>
      <rect class="cls-18" x="1088.01" y="730.42" width="15.52" height="4.68" rx="2.01"/>
      <path class="cls-19" d="M881.17 552.8l70 235h-70"/>
      <path class="cls-18" d="M881.17 787.8h-70l70-235"/>
      <path class="cls-18" d="M881.17 604.88l9.65-8.18h-19.3l9.65 8.18zM893.33 640.33l9.65-8.18h-19.3l9.65 8.18zM881.17 675.52l12.33-10.45h-24.66l12.33 10.45zM905.83 704.08l12.34-10.46H893.5l12.33 10.46zM881.17 746.62l15.82-13.41h-31.64l15.82 13.41zM918.17 779.08l15.81-13.41h-31.63l15.82 13.41z"/>
      <path class="cls-17" d="M969.22 715.77h19.68v109.48h-19.68z"/>
      <path class="cls-18" d="M979.06 758.81a82.5 82.5 0 010-165" transform="translate(0 -.4)"/>
      <path class="cls-19" d="M979.06 593.81a82.5 82.5 0 010 165" transform="translate(0 -.4)"/>
      <rect class="cls-18" x="984.77" y="659.91" width="24.75" height="7.38" rx="3.44"/>
      <rect class="cls-18" x="995.61" y="698.57" width="24.42" height="7.04" rx="3.52"/>
      <rect class="cls-18" x="1021.71" y="637.55" width="19.17" height="6.27" rx="3.14"/>
      <rect class="cls-18" x="991.18" y="611.58" width="19.17" height="5.78" rx="2.48"/>
      <rect class="cls-18" x="1035.18" y="675.91" width="19.17" height="5.78" rx="2.48"/>
      <rect class="cls-18" x="999.94" y="730.07" width="19.17" height="5.78" rx="2.48"/>
      <g id="bush">
        <path class="cls-14" d="M769.88 735.11A29.84 29.84 0 00740 765v23.67h29.84v-53.56z" transform="translate(0 -.4)"/>
        <path class="cls-20" d="M799.73 765a29.84 29.84 0 00-29.85-29.85v53.52h29.85z" transform="translate(0 -.4)"/>
        <circle class="cls-21" cx="778.72" cy="745.08" r="2.24"/>
        <circle class="cls-21" cx="788.75" cy="760.36" r="1.12"/>
        <circle class="cls-21" cx="794.65" cy="781.69" r="2.24"/>
        <circle class="cls-21" cx="779.29" cy="771.94" r="2.81"/>
      </g>
      <g id="bush-2" data-name="bush">
        <path class="cls-14" d="M732.29 755A19.34 19.34 0 00713 774.36v15.34h19.34V755z" transform="translate(0 -.4)"/>
        <path class="cls-20" d="M751.63 774.36A19.34 19.34 0 00732.29 755v34.7h19.34z" transform="translate(0 -.4)"/>
        <circle class="cls-21" cx="738.02" cy="761.34" r="1.45"/>
        <circle class="cls-21" cx="744.52" cy="771.24" r=".73"/>
        <circle class="cls-21" cx="748.34" cy="785.06" r="1.45"/>
        <circle class="cls-21" cx="738.39" cy="778.75" r="1.82"/>
      </g>
      <g id="bush-3" data-name="bush">
        <path class="cls-14" d="M569.36 739.4a29.85 29.85 0 00-29.85 29.85v23.67h29.85V739.4z" transform="translate(0 -.4)"/>
        <path class="cls-20" d="M599.2 769.25a29.85 29.85 0 00-29.84-29.85v53.52h29.84z" transform="translate(0 -.4)"/>
        <circle class="cls-21" cx="578.19" cy="749.37" r="2.24"/>
        <circle class="cls-21" cx="588.23" cy="764.66" r="1.12"/>
        <circle class="cls-21" cx="594.12" cy="785.98" r="2.24"/>
        <circle class="cls-21" cx="578.77" cy="776.23" r="2.81"/>
      </g>
      <path class="cls-19" d="M452.76 549.55l70 235h-70"/>
      <path class="cls-18" d="M452.76 784.55h-70l70-235"/>
      <path class="cls-18" d="M452.76 601.63l9.65-8.19h-19.3l9.65 8.19zM464.92 637.08l9.65-8.18h-19.3l9.65 8.18zM452.76 672.27l12.33-10.45h-24.66l12.33 10.45zM477.43 700.83l12.33-10.46h-24.67l12.34 10.46zM452.76 743.37l15.82-13.41h-31.64l15.82 13.41zM489.76 775.83l15.82-13.41h-31.64l15.82 13.41z"/>
      <path class="cls-19" d="M226.44 554.77l70 235h-70"/>
      <path class="cls-18" d="M226.44 789.77h-70l70-235"/>
      <path class="cls-18" d="M226.44 606.85l9.65-8.18h-19.3l9.65 8.18zM238.6 642.31l9.65-8.18h-19.3l9.65 8.18zM226.44 677.5l12.33-10.45H214.1l12.34 10.45zM251.1 706.05l12.34-10.45h-24.67l12.33 10.45zM226.44 748.6l15.81-13.41h-31.63l15.82 13.41zM263.44 781.05l15.81-13.4h-31.63l15.82 13.4z"/>
      <g id="bush-4" data-name="bush">
        <path class="cls-14" d="M149.29 730.89a29.85 29.85 0 00-29.85 29.84v23.67h29.85v-53.51z" transform="translate(0 -.4)"/>
        <path class="cls-20" d="M179.14 760.73a29.85 29.85 0 00-29.85-29.84v53.51h29.85z" transform="translate(0 -.4)"/>
        <circle class="cls-21" cx="158.12" cy="740.85" r="2.24"/>
        <circle class="cls-21" cx="168.16" cy="756.14" r="1.12"/>
        <circle class="cls-21" cx="174.05" cy="777.47" r="2.24"/>
        <circle class="cls-21" cx="158.7" cy="767.72" r="2.81"/>
      </g>
      <path class="cls-19" d="M338.08 471.49l93.93 315.35h-93.93"/>
      <path class="cls-18" d="M338.08 786.84h-93.94l93.94-315.35"/>
      <path class="cls-18" d="M338.08 541.37l12.95-10.98h-25.9l12.95 10.98zM354.4 588.95l12.95-10.98h-25.9l12.95 10.98zM338.08 636.18l16.55-14.03h-33.1l16.55 14.03zM371.18 674.49l16.55-14.03h-33.1l16.55 14.03zM338.08 731.58l21.22-17.99h-42.45l21.23 17.99zM387.73 775.14l21.22-18H366.5l21.23 18z"/>
      <rect class="cls-19" x="86.99" y="783.41" width="1030" height="40" rx="20"/>
      <path class="cls-14" d="M823.63 821.2h-14l7-14 7 14zM837.63 821.2h-14l7-14 7 14zM851.63 821.2h-14l7-14 7 14zM865.63 821.2h-14l7-14 7 14zM879.63 821.2h-14l7-14 7 14zM893.63 821.2h-14l7-14 7 14zM907.63 821.2h-14l7-14 7 14zM921.63 821.2h-14l7-14 7 14zM935.63 821.2h-14l7-14 7 14zM949.63 821.2h-14l7-14 7 14zM963.63 821.2h-14l7-14 7 14zM1052.14 821.2h-14l7-14 7 14zM1066.14 821.2h-14l7-14 7 14zM1080.14 821.2h-14l7-14 7 14zM1094.14 821.2h-14l7-14 7 14zM1108.14 821.2h-14l7-14 7 14z"/>
      <g id="bush-5" data-name="bush">
        <path class="cls-14" d="M662 755.66a36.9 36.9 0 00-36.9 36.89v29.26H662v-66.15z" transform="translate(0 -.4)"/>
        <path class="cls-20" d="M698.84 792.55A36.89 36.89 0 00662 755.66v66.15h36.89z" transform="translate(0 -.4)"/>
        <circle class="cls-21" cx="672.86" cy="768.07" r="2.77"/>
        <circle class="cls-21" cx="685.27" cy="786.97" r="1.38"/>
        <circle class="cls-21" cx="692.55" cy="813.33" r="2.77"/>
        <circle class="cls-21" cx="673.58" cy="801.28" r="3.48"/>
      </g>
      <path class="cls-17" d="M643.49 822.39c0-12.21-10.89-22.11-24.32-22.11s-24.32 9.9-24.32 22.11M524.38 824.39c0-16.41-14.64-29.72-32.69-29.72S459 808 459 824.39" transform="translate(0 -.4)"/>
      <path class="cls-22" d="M473.07 824.39c0-9.75-8.7-17.66-19.43-17.66s-19.42 7.91-19.42 17.66" transform="translate(0 -.4)"/>
      <path class="cls-17" d="M524.38 824.39c0-16.41-14.64-29.72-32.69-29.72S459 808 459 824.39" transform="translate(0 -.4)"/>
      <path class="cls-22" d="M473.07 824.39c0-9.75-8.7-17.66-19.43-17.66s-19.42 7.91-19.42 17.66" transform="translate(0 -.4)"/>
      <path class="cls-17" d="M524.38 824.39c0-16.41-14.64-29.72-32.69-29.72S459 808 459 824.39" transform="translate(0 -.4)"/>
      <path class="cls-22" d="M473.07 824.39c0-9.75-8.7-17.66-19.43-17.66s-19.42 7.91-19.42 17.66" transform="translate(0 -.4)"/>
      <path class="cls-17" d="M954.56 824.39c0-16.41 14.64-29.72 32.69-29.72s32.69 13.31 32.69 29.72" transform="translate(0 -.4)"/>
      <path class="cls-22" d="M1005.87 824.39c0-9.75 8.7-17.66 19.43-17.66s19.42 7.91 19.42 17.66" transform="translate(0 -.4)"/>
      <path class="cls-14" d="M115.56 821.2h-14l7-14 7 14zM129.56 821.2h-14l7-14 7 14zM143.56 821.2h-14l7-14 7 14zM157.56 821.2h-14l7-14 7 14zM171.56 821.2h-14l7-14 7 14zM185.56 821.2h-14l7-14 7 14zM199.56 821.2h-14l7-14 7 14zM213.56 821.2h-14l7-14 7 14zM515.97 821.2h-14l7-14 7 14zM529.97 821.2h-14l7-14 7 14zM543.97 821.2h-14l7-14 7 14zM557.97 821.2h-14l7-14 7 14zM571.97 821.2h-14l7-14 7 14zM585.97 821.2h-14l7-14 7 14z"/>
      <g id="ground">
        <rect class="cls-23" x="68.94" y="830.36" width="1075" height="57" rx="28.5"/>
        <rect class="cls-18" x="68.94" y="819.02" width="1075" height="57" rx="28.5"/>
      </g>
      <g id="reed">
        <path class="cls-15" d="M925.49 827.87h1.7v55h-1.7z"/>
        <rect class="cls-24" x="924.21" y="811.97" width="4.25" height="17" rx="2.12"/>
        <path class="cls-15" d="M924.21 882.87h4.75l14.83-48.61"/>
        <path class="cls-15" d="M928.46 882.87h-4.75l-14.82-48.61"/>
      </g>
      <g id="reed-2" data-name="reed">
        <path class="cls-15" d="M772.94 827.87h1.7v55h-1.7z"/>
        <rect class="cls-24" x="771.67" y="811.97" width="4.25" height="17" rx="2.12"/>
        <path class="cls-15" d="M771.67 882.87h4.75l14.82-48.61"/>
        <path class="cls-15" d="M775.92 882.87h-4.76l-14.82-48.61"/>
      </g>
      <g id="reed-3" data-name="reed">
        <path class="cls-15" d="M825.93 827.87h1.7v55h-1.7z"/>
        <rect class="cls-24" x="824.66" y="811.97" width="4.25" height="17" rx="2.12"/>
        <path class="cls-15" d="M824.66 882.87h4.75l14.82-48.61"/>
        <path class="cls-15" d="M828.91 882.87h-4.75l-14.83-48.61"/>
      </g>
      <g id="reed-4" data-name="reed">
        <path class="cls-15" d="M875.94 827.87h1.7v55h-1.7z"/>
        <rect class="cls-24" x="874.67" y="811.97" width="4.25" height="17" rx="2.12"/>
        <path class="cls-15" d="M874.67 882.87h4.75l14.82-48.61"/>
        <path class="cls-15" d="M878.92 882.87h-4.76l-14.82-48.61"/>
      </g>
      <g id="bush-6" data-name="bush">
        <path class="cls-14" d="M256.31 799.49A43.49 43.49 0 00212.82 843v34.5h43.5v-78z" transform="translate(0 -.4)"/>
        <path class="cls-20" d="M299.82 843a43.5 43.5 0 00-43.5-43.5v78h43.5z" transform="translate(0 -.4)"/>
        <circle class="cls-21" cx="269.19" cy="814.2" r="3.26"/>
        <circle class="cls-21" cx="283.82" cy="836.48" r="1.63"/>
        <circle class="cls-21" cx="292.4" cy="867.56" r="3.26"/>
        <circle class="cls-21" cx="270.03" cy="853.35" r="4.1"/>
      </g>
      <g id="bush-7" data-name="bush">
        <path class="cls-14" d="M321.77 821.64a32.62 32.62 0 00-32.63 32.62v25.88h32.63v-58.5z" transform="translate(0 -.4)"/>
        <path class="cls-20" d="M354.39 854.26a32.62 32.62 0 00-32.62-32.62v58.5h32.62z" transform="translate(0 -.4)"/>
        <circle class="cls-21" cx="331.42" cy="832.57" r="2.45"/>
        <circle class="cls-21" cx="342.39" cy="849.28" r="1.22"/>
        <circle class="cls-21" cx="348.83" cy="872.59" r="2.45"/>
        <circle class="cls-21" cx="332.05" cy="861.93" r="3.08"/>
      </g>
      <g id="bush-8" data-name="bush">
        <path class="cls-14" d="M1043.28 741.49a23.94 23.94 0 00-23.94 23.94v19h23.94v-42.94z" transform="translate(0 -.4)"/>
        <path class="cls-20" d="M1067.22 765.43a23.94 23.94 0 00-23.94-23.94v42.93h23.94z" transform="translate(0 -.4)"/>
        <circle class="cls-21" cx="1050.37" cy="749.41" r="1.8"/>
        <circle class="cls-21" cx="1058.42" cy="761.67" r=".9"/>
        <circle class="cls-21" cx="1063.14" cy="778.77" r="1.8"/>
        <circle class="cls-21" cx="1050.83" cy="770.95" r="2.26"/>
      </g>
    </g>
    <g id="lake">
      <g id="water">
        <path class="cls-25" d="M1027.44 876.44c-15 0-15-6-30.07-6s-15 6-30.07 6-15-6-30.07-6-15 6-30.06 6-15-6-30.07-6-15 6-30.07 6-15-6-30.07-6-15 6-30.07 6-15-6-30.07-6-15 6-30.06 6-15-6-30.07-6-15 6-30.07 6-15-6-30.08-6-15 6-30.07 6-15-6-30.07-6-15 6-30.07 6-15-6-30.07-6-15 6-30.08 6-15-6-30.07-6-15 6-30.07 6-15-6-30.07-6-15 6-30.07 6-15-6-30.07-6-15 6-30.08 6-15-6-30.08-6-15 6-30.07 6-15-6-30.08-6-15 6-30.08 6a29 29 0 00-29 29 29 29 0 0029 29h36.21a20 20 0 00-20 20 20 20 0 0020 20h540a20 20 0 0020-20 20 20 0 00-20-20h265.79a29 29 0 0029-29 29 29 0 00-29-29z" transform="translate(0 -.4)"/>
        <path d="M1027.44 886.44c-15 0-15-6-30.07-6s-15 6-30.07 6-15-6-30.07-6-15 6-30.06 6-15-6-30.07-6-15 6-30.07 6-15-6-30.07-6-15 6-30.07 6-15-6-30.07-6-15 6-30.06 6-15-6-30.07-6-15 6-30.07 6-15-6-30.08-6-15 6-30.07 6-15-6-30.07-6-15 6-30.07 6-15-6-30.07-6-15 6-30.08 6-15-6-30.07-6-15 6-30.07 6-15-6-30.07-6-15 6-30.07 6-15-6-30.07-6-15 6-30.08 6-15-6-30.08-6-15 6-30.07 6-15-6-30.08-6-15 6-30.08 6a29 29 0 00-29 29 29 29 0 0029 29h36.21a20 20 0 00-20 20 20 20 0 0020 20h540a20 20 0 0020-20 20 20 0 00-20-20h265.79a29 29 0 0029-29 29 29 0 00-29-29z" transform="translate(0 -.4)" fill="#73d0ff"/>
        <path class="cls-23" d="M1027.44 907.71h-842a29 29 0 00-29 29 29 29 0 0029 29h36.21a20 20 0 00-20 20 20 20 0 0020 20h540a20 20 0 0020-20 20 20 0 00-20-20h265.79a29 29 0 0029-29 29 29 0 00-29-29z" transform="translate(0 -.4)"/>
        <path d="M1027.44 896.44c-15 0-15-6-30.07-6s-15 6-30.07 6-15-6-30.07-6-15 6-30.06 6-15-6-30.07-6-15 6-30.07 6-15-6-30.07-6-15 6-30.07 6-15-6-30.07-6-15 6-30.06 6-15-6-30.07-6-15 6-30.07 6-15-6-30.08-6-15 6-30.07 6-15-6-30.07-6-15 6-30.07 6-15-6-30.07-6-15 6-30.08 6-15-6-30.07-6-15 6-30.07 6-15-6-30.07-6-15 6-30.07 6-15-6-30.07-6-15 6-30.08 6-15-6-30.08-6-15 6-30.07 6-15-6-30.08-6-15 6-30.08 6a29 29 0 00-29 29 29 29 0 0029 29h36.21a20 20 0 00-20 20 20 20 0 0020 20h540a20 20 0 0020-20 20 20 0 00-20-20h265.79a29 29 0 0029-29 29 29 0 00-29-29z" transform="translate(0 -.4)" fill="#4bafe3"/>
      </g>
      <g id="wave">
        <path class="cls-25" d="M278.32 919.94s-4.93 5-11 5-11-5-11-5M306.66 919.94s-4.92 5-11 5-11-5-11-5M335 919.94s-4.93 5-11 5-11-5-11-5" transform="translate(0 -.4)"/>
      </g>
      <g id="wave-2" data-name="wave">
        <path class="cls-25" d="M552 919.94s-4.92 5-11 5-11-5-11-5M580.36 919.94s-4.93 5-11 5-11-5-11-5M608.7 919.94s-4.92 5-11 5-11-5-11-5" transform="translate(0 -.4)"/>
      </g>
      <g id="wave-3" data-name="wave">
        <path class="cls-25" d="M438.63 973.8s-4.93 5-11 5-11-5-11-5M467 973.8s-4.92 5-11 5-11-5-11-5M495.32 973.8s-4.93 5-11 5-11-5-11-5" transform="translate(0 -.4)"/>
      </g>
      <g id="wave-4" data-name="wave">
        <path class="cls-25" d="M835.48 919.94s-4.93 5-11 5-11-5-11-5M863.82 919.94s-4.92 5-11 5-11-5-11-5M892.17 919.94s-4.93 5-11 5-11-5-11-5" transform="translate(0 -.4)"/>
      </g>
      <g id="lilly">
        <circle class="cls-28" cx="403.76" cy="917.21" r="6.5"/>
        <path class="cls-28" d="M436.64 913.43c0 5.8-4.25 5.44-4.25 5.44s-4.25.36-4.25-5.44 4.25-15.56 4.25-15.56 4.25 9.76 4.25 15.56z" transform="translate(0 -.4)"/>
        <path class="cls-28" d="M434.53 914.27c2 5.45-2.14 6.57-2.14 6.57s-3.87 1.79-5.85-3.66-1.33-16.08-1.33-16.08 7.33 7.72 9.32 13.17z" transform="translate(0 -.4)"/>
        <path class="cls-28" d="M432.15 913.94c3.73 4.44.24 6.9.24 6.9s-3 3-6.75-1.44-6.75-14.65-6.75-14.65 9.53 4.75 13.26 9.19z" transform="translate(0 -.4)"/>
        <path class="cls-28" d="M430.26 914.27c-2 5.45 2.13 6.57 2.13 6.57s3.87 1.79 5.86-3.66 1.32-16.08 1.32-16.08-7.33 7.72-9.31 13.17z" transform="translate(0 -.4)"/>
        <path class="cls-28" d="M432.63 913.94c-3.73 4.44-.24 6.9-.24 6.9s3 3 6.75-1.44 6.75-14.65 6.75-14.65-9.53 4.75-13.26 9.19z" transform="translate(0 -.4)"/>
        <rect class="cls-20" x="387.34" y="920.46" width="62" height="6.5" rx="3.25"/>
      </g>
      <g id="lilly-2" data-name="lilly">
        <circle class="cls-28" cx="619.17" cy="964.29" r="6.5"/>
        <path class="cls-28" d="M652.05 960.51c0 5.8-4.25 5.44-4.25 5.44s-4.25.36-4.25-5.44S647.8 945 647.8 945s4.25 9.71 4.25 15.51z" transform="translate(0 -.4)"/>
        <path class="cls-28" d="M649.93 961.35c2 5.45-2.13 6.57-2.13 6.57s-3.87 1.79-5.85-3.66-1.33-16.08-1.33-16.08 7.38 7.72 9.31 13.17z" transform="translate(0 -.4)"/>
        <path class="cls-28" d="M647.56 961c3.73 4.44.24 6.9.24 6.9s-3 3-6.75-1.44-6.75-14.65-6.75-14.65 9.53 4.77 13.26 9.19z" transform="translate(0 -.4)"/>
        <path class="cls-28" d="M645.67 961.35c-2 5.45 2.13 6.57 2.13 6.57s3.87 1.79 5.85-3.66 1.35-16.08 1.35-16.08-7.35 7.72-9.33 13.17z" transform="translate(0 -.4)"/>
        <path class="cls-28" d="M648 961c-3.73 4.44-.24 6.9-.24 6.9s3 3 6.75-1.44 6.75-14.65 6.75-14.65-9.49 4.77-13.26 9.19z" transform="translate(0 -.4)"/>
        <rect class="cls-20" x="602.74" y="967.54" width="62" height="6.5" rx="3.25"/>
      </g>
      <g id="lilly-3" data-name="lilly">
        <circle class="cls-28" cx="957.52" cy="917.89" r="6.5"/>
        <path class="cls-28" d="M990.39 914.11c0 5.8-4.25 5.44-4.25 5.44s-4.25.36-4.25-5.44 4.25-15.56 4.25-15.56 4.25 9.76 4.25 15.56z" transform="translate(0 -.4)"/>
        <path class="cls-28" d="M988.28 915c2 5.45-2.14 6.56-2.14 6.56s-3.87 1.8-5.85-3.65-1.29-16.13-1.29-16.13 7.29 7.72 9.28 13.22z" transform="translate(0 -.4)"/>
        <path class="cls-28" d="M985.9 914.62c3.73 4.44.24 6.89.24 6.89s-3 3-6.75-1.43-6.74-14.65-6.74-14.65 9.53 4.74 13.25 9.19z" transform="translate(0 -.4)"/>
        <path class="cls-28" d="M984 915c-2 5.45 2.13 6.56 2.13 6.56s3.88 1.8 5.86-3.65 1.33-16.08 1.33-16.08S986 909.5 984 915z" transform="translate(0 -.4)"/>
        <path class="cls-28" d="M986.38 914.62c-3.72 4.44-.24 6.89-.24 6.89s3 3 6.76-1.43 6.74-14.65 6.74-14.65-9.53 4.74-13.26 9.19z" transform="translate(0 -.4)"/>
        <rect class="cls-20" x="941.09" y="921.14" width="62" height="6.5" rx="3.25"/>
      </g>
      <path id="fish" class="cls-25" d="M745 927.82l-5 4.24c-1.33-1.33-6.16-5.74-11.93-5.74-6.78 0-12.29 6.12-12.29 6.12s5.51 6.11 12.29 6.11c5.77 0 10.6-4.4 11.93-5.73l5 4.24z" transform="translate(0 -.4)"/>
      <path id="fish-2" data-name="fish" class="cls-25" d="M298.43 958.2l4.95 4.24c1.33-1.33 6.16-5.73 11.92-5.73 6.79 0 12.29 6.11 12.29 6.11s-5.5 6.12-12.29 6.12c-5.76 0-10.59-4.41-11.92-5.74l-4.95 4.24z" transform="translate(0 -.4)"/>
    </g>
  </g>
</svg>
