<svg xmlns="http://www.w3.org/2000/svg" xmlns:xlink="http://www.w3.org/1999/xlink" viewBox="0 0 800 600">
  <defs>
    <linearGradient id="linear-gradient" x1="413.82" y1="76.96" x2="413.82" y2="394.16" gradientUnits="userSpaceOnUse">
      <stop offset="0" stop-color="#ceecf4"/>
      <stop offset=".44" stop-color="#eef0e2"/>
      <stop offset=".66" stop-color="#fff2d8"/>
      <stop offset=".83" stop-color="#fbe6d9"/>
      <stop offset="1" stop-color="#fae2da"/>
    </linearGradient>
    <linearGradient id="linear-gradient-2" x1="410.98" y1="94.11" x2="410.98" y2="387.17" xlink:href="#linear-gradient"/>
    <linearGradient id="linear-gradient-3" x1="416.65" y1="94.11" x2="416.65" y2="387.17" xlink:href="#linear-gradient"/>
    <linearGradient id="linear-gradient-4" x1="413.82" y1="94.11" x2="413.82" y2="387.17" xlink:href="#linear-gradient"/>
    <linearGradient id="linear-gradient-5" x1="369.4" y1="391.42" x2="458.23" y2="410.3" gradientUnits="userSpaceOnUse">
      <stop offset="0" stop-color="#805c65"/>
      <stop offset="1" stop-color="#494254"/>
    </linearGradient>
    <linearGradient id="linear-gradient-6" x1="222.25" y1="631.07" x2="309.68" y2="649.66" gradientTransform="translate(147.85 -190.31)" xlink:href="#linear-gradient-5"/>
    <linearGradient id="linear-gradient-7" x1="370.25" y1="391.6" x2="457.38" y2="410.12" xlink:href="#linear-gradient-5"/>
    <linearGradient id="linear-gradient-8" x1="370.67" y1="397.94" x2="456.96" y2="416.28" xlink:href="#linear-gradient-5"/>
    <linearGradient id="linear-gradient-9" x1="370.67" y1="385.43" x2="456.96" y2="403.78" xlink:href="#linear-gradient-5"/>
    <linearGradient id="linear-gradient-10" x1="189.16" y1="587.57" x2="189.16" y2="574.57" gradientTransform="rotate(180 275.505 491.165)" xlink:href="#linear-gradient-5"/>
    <linearGradient id="linear-gradient-11" x1="185.68" y1="592.97" x2="185.68" y2="569.97" gradientTransform="translate(179.65 -180.61)" gradientUnits="userSpaceOnUse">
      <stop offset="0" stop-color="#815764"/>
      <stop offset="1" stop-color="#494254"/>
    </linearGradient>
    <linearGradient id="linear-gradient-12" x1="572.49" y1="472.47" x2="572.49" y2="485.47" gradientTransform="translate(-106.7 -78.51)" gradientUnits="userSpaceOnUse">
      <stop offset="0" stop-color="#805c65"/>
      <stop offset=".6" stop-color="#494254"/>
    </linearGradient>
    <linearGradient id="linear-gradient-13" x1="569" y1="467.87" x2="569" y2="490.87" gradientTransform="translate(-106.7 -78.51)" gradientUnits="userSpaceOnUse">
      <stop offset="0" stop-color="#815764"/>
      <stop offset=".5" stop-color="#494254"/>
    </linearGradient>
    <linearGradient id="linear-gradient-14" x1="254.29" y1="620.39" x2="338.84" y2="638.36" gradientTransform="translate(117.15 -179.36)" xlink:href="#linear-gradient-5"/>
    <linearGradient id="linear-gradient-15" x1="254.7" y1="620.59" x2="338.35" y2="638.37" gradientTransform="translate(117.29 -179.42)" xlink:href="#linear-gradient-5"/>
    <linearGradient id="linear-gradient-16" x1="298.09" y1="354.21" x2="298.09" y2="380.04" gradientTransform="rotate(90 286.655 494.985)" xlink:href="#linear-gradient-5"/>
    <linearGradient id="linear-gradient-17" x1="291.16" y1="390.77" x2="291.16" y2="345.08" gradientTransform="translate(122.55 131.57)" xlink:href="#linear-gradient-11"/>
    <linearGradient id="linear-gradient-18" x1="413.71" y1="446.75" x2="413.71" y2="453.38" gradientUnits="userSpaceOnUse">
      <stop offset="0" stop-color="#ff8181"/>
      <stop offset=".56" stop-color="#f16171"/>
      <stop offset="1" stop-color="#e44562"/>
    </linearGradient>
    <linearGradient id="linear-gradient-19" x1="413.71" y1="448.06" x2="413.71" y2="452.07" gradientUnits="userSpaceOnUse">
      <stop offset="0" stop-color="#ff9b8a"/>
      <stop offset=".52" stop-color="#fa7b80"/>
      <stop offset="1" stop-color="#f55a75"/>
    </linearGradient>
    <linearGradient id="linear-gradient-20" x1="413.71" y1="475.09" x2="413.71" y2="481.73" xlink:href="#linear-gradient-18"/>
    <linearGradient id="linear-gradient-21" x1="413.71" y1="476.4" x2="413.71" y2="480.42" xlink:href="#linear-gradient-19"/>
    <linearGradient id="linear-gradient-22" x1="413.71" y1="418.4" x2="413.71" y2="425.03" xlink:href="#linear-gradient-18"/>
    <linearGradient id="linear-gradient-23" x1="413.71" y1="419.71" x2="413.71" y2="423.72" xlink:href="#linear-gradient-19"/>
    <linearGradient id="linear-gradient-24" x1="155.56" y1="168.08" x2="99.43" y2="70.85" gradientUnits="userSpaceOnUse">
      <stop offset="0" stop-color="#e87b4e"/>
      <stop offset=".25" stop-color="#f29b58"/>
      <stop offset=".5" stop-color="#febe64"/>
      <stop offset="1" stop-color="#f5cc5f"/>
    </linearGradient>
    <linearGradient id="linear-gradient-25" x1="124.04" y1="142.33" x2="50" y2="97.85" xlink:href="#linear-gradient-24"/>
    <linearGradient id="linear-gradient-26" x1="87.19" y1="178.81" x2="87.19" y2="61.38" gradientUnits="userSpaceOnUse">
      <stop offset="0" stop-color="#ec7f51"/>
      <stop offset=".48" stop-color="#f49f5c"/>
      <stop offset="1" stop-color="#fec569"/>
    </linearGradient>
    <linearGradient id="linear-gradient-27" x1="187.86" y1="139.39" x2="123.61" y2="100.79" xlink:href="#linear-gradient-24"/>
    <linearGradient id="linear-gradient-28" x1="155.83" y1="178.81" x2="155.83" y2="61.38" xlink:href="#linear-gradient-26"/>
    <linearGradient id="linear-gradient-29" x1="157.67" y1="139.89" x2="91.75" y2="100.29" xlink:href="#linear-gradient-24"/>
    <linearGradient id="linear-gradient-30" x1="124.81" y1="178.8" x2="124.81" y2="61.37" xlink:href="#linear-gradient-26"/>
    <linearGradient id="linear-gradient-31" x1="186.69" y1="161.96" x2="186.69" y2="76.96" gradientUnits="userSpaceOnUse">
      <stop offset="0" stop-color="#805d67"/>
      <stop offset=".58" stop-color="#604d5c"/>
      <stop offset="1" stop-color="#474153"/>
    </linearGradient>
    <linearGradient id="linear-gradient-32" x1="165.28" y1="82.39" x2="208.08" y2="156.53" gradientUnits="userSpaceOnUse">
      <stop offset="0" stop-color="#434147"/>
      <stop offset=".6" stop-color="#635059"/>
      <stop offset="1" stop-color="#7a5b66"/>
    </linearGradient>
    <linearGradient id="linear-gradient-33" x1="167.84" y1="81.33" x2="205.52" y2="157.59" gradientUnits="userSpaceOnUse">
      <stop offset="0" stop-color="#4a474e"/>
      <stop offset=".53" stop-color="#6a5760"/>
      <stop offset="1" stop-color="#896672"/>
    </linearGradient>
    <linearGradient id="linear-gradient-34" x1="67.24" y1="77.59" x2="67.24" y2="162.59" xlink:href="#linear-gradient-31"/>
    <linearGradient id="linear-gradient-35" x1="186.68" y1="112.26" x2="186.68" y2="127.9" xlink:href="#linear-gradient-18"/>
    <linearGradient id="linear-gradient-36" x1="186.68" y1="115.35" x2="186.68" y2="124.81" xlink:href="#linear-gradient-19"/>
    <linearGradient id="linear-gradient-37" x1="87.02" y1="65.24" x2="87.02" y2="76.43" xlink:href="#linear-gradient-18"/>
    <linearGradient id="linear-gradient-38" x1="87.02" y1="67.45" x2="87.02" y2="74.22" xlink:href="#linear-gradient-19"/>
    <linearGradient id="linear-gradient-39" x1="87.02" y1="84.94" x2="87.02" y2="96.13" xlink:href="#linear-gradient-18"/>
    <linearGradient id="linear-gradient-40" x1="87.02" y1="87.15" x2="87.02" y2="93.92" xlink:href="#linear-gradient-19"/>
    <linearGradient id="linear-gradient-41" x1="87.02" y1="144.05" x2="87.02" y2="155.24" xlink:href="#linear-gradient-18"/>
    <linearGradient id="linear-gradient-42" x1="87.02" y1="146.26" x2="87.02" y2="153.03" xlink:href="#linear-gradient-19"/>
    <linearGradient id="linear-gradient-43" x1="87.02" y1="104.65" x2="87.02" y2="115.83" xlink:href="#linear-gradient-18"/>
    <linearGradient id="linear-gradient-44" x1="87.02" y1="106.85" x2="87.02" y2="113.62" xlink:href="#linear-gradient-19"/>
    <linearGradient id="linear-gradient-45" x1="87.02" y1="124.35" x2="87.02" y2="135.54" xlink:href="#linear-gradient-18"/>
    <linearGradient id="linear-gradient-46" x1="87.02" y1="126.56" x2="87.02" y2="133.33" xlink:href="#linear-gradient-19"/>
    <linearGradient id="linear-gradient-47" x1="87.02" y1="163.75" x2="87.02" y2="174.94" xlink:href="#linear-gradient-18"/>
    <linearGradient id="linear-gradient-48" x1="87.02" y1="165.96" x2="87.02" y2="172.73" xlink:href="#linear-gradient-19"/>
    <linearGradient id="linear-gradient-49" x1="907.51" y1="168.09" x2="851.38" y2="70.85" gradientTransform="matrix(1 0 0 -1 -631.5 238.94)" xlink:href="#linear-gradient-24"/>
    <linearGradient id="linear-gradient-50" x1="325.44" y1="142.33" x2="251.41" y2="97.85" xlink:href="#linear-gradient-24"/>
    <linearGradient id="linear-gradient-51" x1="839.13" y1="178.8" x2="839.13" y2="61.37" gradientTransform="matrix(1 0 0 -1 -550.87 240.18)" xlink:href="#linear-gradient-26"/>
    <linearGradient id="linear-gradient-52" x1="251.54" y1="139.88" x2="185.67" y2="100.3" xlink:href="#linear-gradient-24"/>
    <linearGradient id="linear-gradient-53" x1="218.5" y1="178.81" x2="218.5" y2="61.38" xlink:href="#linear-gradient-26"/>
    <linearGradient id="linear-gradient-54" x1="911.43" y1="140.45" x2="843.67" y2="99.73" gradientTransform="matrix(1 0 0 -1 -627.71 240.18)" xlink:href="#linear-gradient-24"/>
    <linearGradient id="linear-gradient-55" x1="877.67" y1="178.8" x2="877.67" y2="61.37" gradientTransform="matrix(1 0 0 -1 -627.95 240.18)" xlink:href="#linear-gradient-26"/>
    <linearGradient id="linear-gradient-56" x1="819.19" y1="77.59" x2="819.19" y2="162.59" gradientTransform="matrix(-1 0 0 1 1127.39 0)" xlink:href="#linear-gradient-31"/>
    <linearGradient id="linear-gradient-57" x1="838.97" y1="65.24" x2="838.97" y2="76.43" gradientTransform="matrix(-1 0 0 1 1127.39 0)" xlink:href="#linear-gradient-18"/>
    <linearGradient id="linear-gradient-58" x1="838.97" y1="67.45" x2="838.97" y2="74.22" gradientTransform="matrix(-1 0 0 1 1127.39 0)" xlink:href="#linear-gradient-19"/>
    <linearGradient id="linear-gradient-59" x1="838.97" y1="84.94" x2="838.97" y2="96.13" gradientTransform="matrix(-1 0 0 1 1127.39 0)" xlink:href="#linear-gradient-18"/>
    <linearGradient id="linear-gradient-60" x1="838.97" y1="87.15" x2="838.97" y2="93.92" gradientTransform="matrix(-1 0 0 1 1127.39 0)" xlink:href="#linear-gradient-19"/>
    <linearGradient id="linear-gradient-61" x1="838.97" y1="144.05" x2="838.97" y2="155.24" gradientTransform="matrix(-1 0 0 1 1127.39 0)" xlink:href="#linear-gradient-18"/>
    <linearGradient id="linear-gradient-62" x1="838.97" y1="146.26" x2="838.97" y2="153.03" gradientTransform="matrix(-1 0 0 1 1127.39 0)" xlink:href="#linear-gradient-19"/>
    <linearGradient id="linear-gradient-63" x1="838.97" y1="104.64" x2="838.97" y2="115.83" gradientTransform="matrix(-1 0 0 1 1127.39 0)" xlink:href="#linear-gradient-18"/>
    <linearGradient id="linear-gradient-64" x1="838.97" y1="106.85" x2="838.97" y2="113.62" gradientTransform="matrix(-1 0 0 1 1127.39 0)" xlink:href="#linear-gradient-19"/>
    <linearGradient id="linear-gradient-65" x1="838.97" y1="124.34" x2="838.97" y2="135.53" gradientTransform="matrix(-1 0 0 1 1127.39 0)" xlink:href="#linear-gradient-18"/>
    <linearGradient id="linear-gradient-66" x1="838.97" y1="126.55" x2="838.97" y2="133.32" gradientTransform="matrix(-1 0 0 1 1127.39 0)" xlink:href="#linear-gradient-19"/>
    <linearGradient id="linear-gradient-67" x1="838.97" y1="163.75" x2="838.97" y2="174.94" gradientTransform="matrix(-1 0 0 1 1127.39 0)" xlink:href="#linear-gradient-18"/>
    <linearGradient id="linear-gradient-68" x1="838.97" y1="165.96" x2="838.97" y2="172.73" gradientTransform="matrix(-1 0 0 1 1127.39 0)" xlink:href="#linear-gradient-19"/>
    <linearGradient id="linear-gradient-69" x1="186.62" y1="342.16" x2="186.62" y2="162.16" gradientUnits="userSpaceOnUse">
      <stop offset="0" stop-color="#f7cb60"/>
      <stop offset=".65" stop-color="#ffbd65"/>
      <stop offset="1" stop-color="#e87d4e"/>
    </linearGradient>
    <linearGradient id="linear-gradient-70" x1="186.69" y1="342.16" x2="186.69" y2="162.16" gradientUnits="userSpaceOnUse">
      <stop offset="0" stop-color="#fed871"/>
      <stop offset="1" stop-color="#e97d4f"/>
    </linearGradient>
    <linearGradient id="linear-gradient-71" x1="186.62" y1="342.16" x2="186.62" y2="362.16" gradientUnits="userSpaceOnUse">
      <stop offset="0" stop-color="#815d67"/>
      <stop offset="1" stop-color="#484153"/>
    </linearGradient>
    <linearGradient id="linear-gradient-72" x1="159.12" y1="352.16" x2="214.12" y2="352.16" xlink:href="#linear-gradient-71"/>
    <linearGradient id="linear-gradient-73" x1="166.62" y1="424.66" x2="206.62" y2="424.66" xlink:href="#linear-gradient-71"/>
    <linearGradient id="linear-gradient-74" x1="172.62" y1="424.66" x2="178.89" y2="424.66" xlink:href="#linear-gradient-71"/>
    <linearGradient id="linear-gradient-75" x1="183.49" y1="424.66" x2="189.76" y2="424.66" xlink:href="#linear-gradient-71"/>
    <linearGradient id="linear-gradient-76" x1="194.35" y1="424.66" x2="200.62" y2="424.66" xlink:href="#linear-gradient-71"/>
    <linearGradient id="linear-gradient-77" x1="295.49" y1="578.52" x2="295.49" y2="609.61" gradientTransform="rotate(90 286.655 494.985)" xlink:href="#linear-gradient-5"/>
    <linearGradient id="linear-gradient-78" x1="287.16" y1="622.52" x2="287.16" y2="567.52" gradientTransform="translate(-100.54 -99.53)" xlink:href="#linear-gradient-11"/>
    <linearGradient id="linear-gradient-79" x1="547.17" y1="135.94" x2="742.17" y2="135.94" gradientUnits="userSpaceOnUse">
      <stop offset="0" stop-color="#c7e9f3"/>
      <stop offset=".25" stop-color="#f8e3ca"/>
      <stop offset=".5" stop-color="#f7d5c9"/>
      <stop offset=".75" stop-color="#f8e3ca"/>
      <stop offset="1" stop-color="#c7e9f3"/>
    </linearGradient>
    <linearGradient id="linear-gradient-80" x1="640.67" y1="98.43" x2="644.4" y2="98.43" xlink:href="#linear-gradient-79"/>
    <linearGradient id="linear-gradient-81" x1="640.67" y1="173.46" x2="644.4" y2="173.46" xlink:href="#linear-gradient-79"/>
    <linearGradient id="linear-gradient-82" x1="547.17" y1="135.94" x2="584.47" y2="135.94" xlink:href="#linear-gradient-79"/>
    <linearGradient id="linear-gradient-83" x1="704.43" y1="135.94" x2="742.17" y2="135.94" xlink:href="#linear-gradient-79"/>
    <linearGradient id="linear-gradient-84" x1="644.4" y1="61.87" x2="644.4" y2="341.87" gradientUnits="userSpaceOnUse">
      <stop offset="0" stop-color="#a66961"/>
      <stop offset=".67" stop-color="#86504c"/>
      <stop offset="1" stop-color="#754241"/>
    </linearGradient>
    <linearGradient id="linear-gradient-85" x1="644.41" y1="61.87" x2="644.41" y2="341.87" xlink:href="#linear-gradient-84"/>
    <linearGradient id="linear-gradient-86" x1="644.67" y1="100.42" x2="644.67" y2="171.46" gradientUnits="userSpaceOnUse">
      <stop offset="0" stop-color="#fed86a"/>
      <stop offset="1" stop-color="#e3784d"/>
    </linearGradient>
    <linearGradient id="linear-gradient-87" x1="644.67" y1="104.67" x2="644.67" y2="167.22" xlink:href="#linear-gradient-86"/>
    <linearGradient id="linear-gradient-88" x1="633.33" y1="117.03" x2="655.01" y2="154.59" gradientUnits="userSpaceOnUse">
      <stop offset="0" stop-color="#474052"/>
      <stop offset="1" stop-color="#815c67"/>
    </linearGradient>
    <linearGradient id="linear-gradient-89" x1="644.4" y1="128.13" x2="644.4" y2="143.76" xlink:href="#linear-gradient-18"/>
    <linearGradient id="linear-gradient-90" x1="644.4" y1="131.21" x2="644.4" y2="140.68" xlink:href="#linear-gradient-19"/>
    <linearGradient id="linear-gradient-91" x1="644.4" y1="341.87" x2="644.4" y2="361.87" gradientUnits="userSpaceOnUse">
      <stop offset="0" stop-color="#fec367"/>
      <stop offset="1" stop-color="#ec8050"/>
    </linearGradient>
    <linearGradient id="linear-gradient-92" x1="616.9" y1="351.87" x2="671.9" y2="351.87" xlink:href="#linear-gradient-91"/>
    <linearGradient id="linear-gradient-93" x1="624.4" y1="424.37" x2="664.4" y2="424.37" gradientUnits="userSpaceOnUse">
      <stop offset="0" stop-color="#fdc066"/>
      <stop offset="1" stop-color="#ed8351"/>
    </linearGradient>
    <linearGradient id="linear-gradient-94" x1="630.4" y1="424.37" x2="636.67" y2="424.37" xlink:href="#linear-gradient-93"/>
    <linearGradient id="linear-gradient-95" x1="641.27" y1="424.37" x2="647.54" y2="424.37" xlink:href="#linear-gradient-93"/>
    <linearGradient id="linear-gradient-96" x1="652.13" y1="424.37" x2="658.4" y2="424.37" xlink:href="#linear-gradient-93"/>
    <linearGradient id="linear-gradient-97" x1="295.2" y1="120.73" x2="295.2" y2="151.82" gradientTransform="rotate(90 286.655 494.985)" gradientUnits="userSpaceOnUse">
      <stop offset="0" stop-color="#fdbf66"/>
      <stop offset="1" stop-color="#e87e50"/>
    </linearGradient>
    <linearGradient id="linear-gradient-98" x1="286.87" y1="164.74" x2="286.87" y2="109.74" gradientTransform="translate(357.53 357.97)" xlink:href="#linear-gradient-93"/>
    <linearGradient id="linear-gradient-99" x1="626.02" y1="346.78" x2="626.02" y2="356.96" xlink:href="#linear-gradient-18"/>
    <linearGradient id="linear-gradient-100" x1="626.02" y1="348.79" x2="626.02" y2="354.95" xlink:href="#linear-gradient-19"/>
    <linearGradient id="linear-gradient-101" x1="644.41" y1="346.78" x2="644.41" y2="356.96" xlink:href="#linear-gradient-18"/>
    <linearGradient id="linear-gradient-102" x1="644.41" y1="348.79" x2="644.41" y2="354.95" xlink:href="#linear-gradient-19"/>
    <linearGradient id="linear-gradient-103" x1="662.78" y1="346.78" x2="662.78" y2="356.96" xlink:href="#linear-gradient-18"/>
    <linearGradient id="linear-gradient-104" x1="662.78" y1="348.79" x2="662.78" y2="354.95" xlink:href="#linear-gradient-19"/>
    <radialGradient id="radial-gradient" cx="441.48" cy="530.5" r="24.89" gradientTransform="matrix(1.27 0 0 .23 -146.29 408.56)" gradientUnits="userSpaceOnUse">
      <stop offset="0" stop-color="#bbccd9"/>
      <stop offset="1" stop-color="#fff"/>
    </radialGradient>
    <radialGradient id="radial-gradient-2" cx="264.87" cy="531.13" r="24.89" gradientTransform="matrix(1.27 0 0 .23 -146.29 409.05)" xlink:href="#radial-gradient"/>
    <radialGradient id="radial-gradient-3" cx="623.99" cy="530.84" r="24.89" gradientTransform="matrix(1.27 0 0 .23 -146.29 408.83)" xlink:href="#radial-gradient"/>
    <style>
      .cls-32,.cls-8{mix-blend-mode:screen}.cls-8{fill:#336db6}.cls-32{fill:#ceadad;opacity:.45}
    </style>
  </defs>
  <g style="isolation:isolate">
    <path fill="#7d93a4" d="M0 0h800v600H0z" id="background"/>
    <g id="sword">
      <g id="blade">
        <g id="_Group_" data-name="&lt;Group&gt;">
          <path fill="url(#linear-gradient)" d="M428.82 110.47v167.99l-2.28.66 2.28 2.24v112.8h-30V148.59l3.04-1.32-3.04-1.81v-34.99l15-33.52 8 17.87-2.29 1.78 3.32.52 5.97 13.35z"/>
          <path style="mix-blend-mode:multiply" fill="url(#linear-gradient-2)" d="M402.98 387.17V112l10.84-17.89 5.16 17.89v275.17h-16z"/>
          <path style="mix-blend-mode:screen" fill="url(#linear-gradient-3)" d="M408.65 387.17V112l5.17-17.89L424.65 112v275.17h-16z"/>
          <path fill="url(#linear-gradient-4)" d="M405.82 387.17V112l8-17.89 8 17.89v275.17h-16z"/>
          <path d="M413.82 102.13c.22 11.71.32 23.41.49 35.12l.27 35.12c.17 23.41.15 46.82.24 70.23-.08 23.41-.07 46.82-.23 70.23l-.28 35.17c-.17 11.7-.27 23.41-.49 35.11-.23-11.7-.33-23.41-.49-35.11l-.28-35.12c-.16-23.41-.15-46.82-.23-70.23.08-23.41.07-46.82.23-70.23l.28-35.12c.17-11.76.26-23.46.49-35.17z" fill="#fff"/>
        </g>
        <path class="cls-8" d="M428.82 181.3v37.92l-4.17 2.4-2.83 1.64-2.84 1.64-5.16 2.98-5.17 2.98-2.83 1.64-2.84 1.64-4.16 2.4v-37.92l4.16-2.4 2.84-1.64 2.83-1.63 5.17-2.99 5.16-2.98 2.84-1.64 2.83-1.63 4.17-2.41z"/>
        <path style="mix-blend-mode:screen" fill="#3b78bd" d="M428.82 311.15v24.01l-4.17 2.41-2.83 1.63-2.84 1.64-5.16 2.98-5.17 2.98-2.83 1.64-2.84 1.64-4.16 2.4v-24.01l4.16-2.4 2.84-1.64 2.83-1.64 5.17-2.98 5.16-2.98 2.84-1.64 2.83-1.63 4.17-2.41z"/>
        <path style="mix-blend-mode:screen" fill="#3373b9" d="M428.82 236.85v11.22l-4.17 2.41-2.83 1.64-2.84 1.64-5.16 2.98-5.17 2.98-2.83 1.63-2.84 1.64-4.16 2.41v-11.23l4.16-2.41 2.84-1.64 2.83-1.63 5.17-2.98 5.16-2.98 2.84-1.64 2.83-1.64 4.17-2.4z"/>
      </g>
      <g id="handle">
        <path fill="url(#linear-gradient-5)" d="M368.82 394.18h90v13.37h-90z"/>
        <path transform="rotate(-90 413.815 450.055)" fill="url(#linear-gradient-6)" d="M371.32 435.06h85v30h-85z"/>
        <path style="mix-blend-mode:multiply" fill="url(#linear-gradient-7)" opacity=".2" d="M368.82 398.36h90v5.01h-90z"/>
        <path style="mix-blend-mode:multiply" fill="url(#linear-gradient-8)" opacity=".2" d="M368.82 406.67h90v.89h-90z"/>
        <path style="mix-blend-mode:screen" fill="url(#linear-gradient-9)" opacity=".4" d="M368.82 394.16h90v.89h-90z"/>
        <ellipse cx="361.85" cy="401.26" rx="6.47" ry="6.5" fill="url(#linear-gradient-10)"/>
        <path d="M361.85 389.36h4a3 3 0 013 3v17a3 3 0 01-3 3h-4v-23z" transform="rotate(180 365.335 400.86)" fill="url(#linear-gradient-11)"/>
        <ellipse cx="465.79" cy="400.46" rx="6.47" ry="6.5" fill="url(#linear-gradient-12)"/>
        <path d="M458.82 389.36h4a3 3 0 013 3v17a3 3 0 01-3 3h-4v-23z" fill="url(#linear-gradient-13)"/>
        <path transform="rotate(-90 413.715 450.015)" style="mix-blend-mode:multiply" fill="url(#linear-gradient-14)" opacity=".2" d="M371.25 441.92h84.92v16.21h-84.92z"/>
        <path transform="rotate(-90 413.82 450.06)" style="mix-blend-mode:screen" fill="url(#linear-gradient-15)" opacity=".4" d="M371.36 444.17h84.92v11.77h-84.92z"/>
        <ellipse cx="414.51" cy="506.42" rx="12.91" ry="12.86" fill="url(#linear-gradient-16)"/>
        <path d="M406.79 476.65h7.9a5.95 5.95 0 015.95 5.95v33.8a5.95 5.95 0 01-5.95 5.95h-7.9v-45.7z" transform="rotate(90 413.715 499.495)" fill="url(#linear-gradient-17)"/>
        <path fill="url(#linear-gradient-18)" d="M415.63 446.75h-3.83l-1.92 3.31 1.92 3.32h3.83l1.91-3.32-1.91-3.31z"/>
        <path fill="url(#linear-gradient-19)" d="M414.87 448.06h-2.31l-1.16 2 1.16 2.01h2.31l1.16-2.01-1.16-2z"/>
        <path fill="url(#linear-gradient-20)" d="M415.63 475.1h-3.83l-1.92 3.31 1.92 3.32h3.83l1.91-3.32-1.91-3.31z"/>
        <path fill="url(#linear-gradient-21)" d="M414.87 476.4h-2.31l-1.16 2.01 1.16 2.01h2.31l1.16-2.01-1.16-2.01z"/>
        <path fill="url(#linear-gradient-22)" d="M415.63 418.4h-3.83l-1.92 3.32 1.92 3.31h3.83l1.91-3.31-1.91-3.32z"/>
        <path fill="url(#linear-gradient-23)" d="M414.87 419.71h-2.31l-1.16 2.01 1.16 2.01h2.31l1.16-2.01-1.16-2.01z"/>
      </g>
      <ellipse cx="413.82" cy="530.5" rx="43.62" ry="7.5" style="mix-blend-mode:multiply" fill="url(#radial-gradient)"/>
    </g>
    <g id="warhammer">
      <path fill="url(#linear-gradient-24)" d="M97.5 71.97h60v95h-60z"/>
      <path class="cls-32" d="M164.18 61.38v22.65l-92.26 92.26v-13.7h-9.35v-19.75l70.88-70.87.84-.84v.84h13.01V61.38h16.88zM171.26 76.95l-7.07 7.08v-7.08h7.07zM157.5 106.75v12.67l-23.21 23.21-2.22 2.21-14.51 14.53-7.6 7.6h-7.83v7.82l-4.01 4.02H85.44l3.87-3.87 4.43-4.44 3.76-3.75 4.63-4.63 13-12.99 42.37-42.38z"/>
      <path fill="url(#linear-gradient-25)" d="M71.92 61.38h30.21v117.43H71.92z"/>
      <path fill="url(#linear-gradient-26)" d="M75.75 61.38h22.88v117.43H75.75z"/>
      <path fill="url(#linear-gradient-27)" d="M147.3 61.38h16.88v117.43H147.3z"/>
      <path fill="url(#linear-gradient-28)" d="M149.44 61.38h12.79v117.43h-12.79z"/>
      <path fill="url(#linear-gradient-29)" d="M115.13 61.38h19.16v117.43h-19.16z"/>
      <path fill="url(#linear-gradient-30)" d="M117.55 61.37h14.51V178.8h-14.51z"/>
      <path fill="url(#linear-gradient-31)" d="M164.19 76.96h45v85h-45z"/>
      <path fill="url(#linear-gradient-32)" d="M198.68 161.96v-29.71h10.51v-24.19h-10.51v-31.1h-23.99v31.1h-10.5V132.25h10.5v29.71h23.99z"/>
      <path fill="url(#linear-gradient-33)" d="M209.18 110.08h-12.5V76.96h-20v33.12h-12.5v20h12.5v31.88h20v-31.88h12.5v-20z"/>
      <path fill="url(#linear-gradient-34)" d="M62.57 77.59h9.35v85h-9.35z"/>
      <path fill="url(#linear-gradient-35)" d="M191.19 112.26h-9.02l-4.52 7.82 4.52 7.82h9.02l4.52-7.82-4.52-7.82z"/>
      <path fill="url(#linear-gradient-36)" d="M189.41 115.35h-5.46l-2.73 4.73 2.73 4.73h5.46l2.73-4.73-2.73-4.73z"/>
      <path fill="url(#linear-gradient-37)" d="M90.25 65.24h-6.46l-3.23 5.59 3.23 5.6h6.46l3.23-5.6-3.23-5.59z"/>
      <path fill="url(#linear-gradient-38)" d="M88.97 67.45h-3.9l-1.96 3.38 1.96 3.39h3.9l1.96-3.39-1.96-3.38z"/>
      <path fill="url(#linear-gradient-39)" d="M90.25 84.94h-6.46l-3.23 5.6 3.23 5.59h6.46l3.23-5.59-3.23-5.6z"/>
      <path fill="url(#linear-gradient-40)" d="M88.97 87.15h-3.9l-1.96 3.39 1.96 3.38h3.9l1.96-3.38-1.96-3.39z"/>
      <path fill="url(#linear-gradient-41)" d="M90.25 144.05h-6.46l-3.23 5.59 3.23 5.6h6.46l3.23-5.6-3.23-5.59z"/>
      <path fill="url(#linear-gradient-42)" d="M88.97 146.26h-3.9l-1.96 3.38 1.96 3.39h3.9l1.96-3.39-1.96-3.38z"/>
      <path fill="url(#linear-gradient-43)" d="M90.25 104.64h-6.46l-3.23 5.6 3.23 5.59h6.46l3.23-5.59-3.23-5.6z"/>
      <path fill="url(#linear-gradient-44)" d="M88.97 106.85h-3.9l-1.96 3.39 1.96 3.39h3.9l1.96-3.39-1.96-3.39z"/>
      <path fill="url(#linear-gradient-45)" d="M90.25 124.35h-6.46l-3.23 5.59 3.23 5.6h6.46l3.23-5.6-3.23-5.59z"/>
      <path fill="url(#linear-gradient-46)" d="M88.97 126.56h-3.9l-1.96 3.38 1.96 3.39h3.9l1.96-3.39-1.96-3.38z"/>
      <path fill="url(#linear-gradient-47)" d="M90.25 163.75h-6.46l-3.23 5.59 3.23 5.6h6.46l3.23-5.6-3.23-5.59z"/>
      <path fill="url(#linear-gradient-48)" d="M88.97 165.96h-3.9l-1.96 3.38 1.96 3.39h3.9l1.96-3.39-1.96-3.38z"/>
      <path transform="rotate(-180 247.95 119.47)" fill="url(#linear-gradient-49)" d="M217.95 71.97h60v95h-60z"/>
      <path class="cls-32" d="M303.53 77v14.64l-3.83 3.83-9.17 9.17-2.21 2.22-4.24 4.23-1.61 1.61-4.52 4.52-49.74 49.75-.05.04-2.42 2.43-9.37 9.37h-7.31v-29.22l19.1-19.09 10.85-10.86 53.57-53.58 7.12 7.13 3.83 3.81z"/>
      <path fill="url(#linear-gradient-50)" d="M273.33 61.38h30.2v117.43h-30.2z"/>
      <path transform="rotate(-180 288.26 120.09)" fill="url(#linear-gradient-51)" d="M276.82 61.37h22.88V178.8h-22.88z"/>
      <path fill="url(#linear-gradient-52)" d="M209.06 61.38h19.1v117.43h-19.1z"/>
      <path fill="url(#linear-gradient-53)" d="M211.27 61.38h14.47v117.43h-14.47z"/>
      <path transform="rotate(-180 249.84 120.09)" fill="url(#linear-gradient-54)" d="M239.01 61.37h21.67V178.8h-21.67z"/>
      <path transform="rotate(-180 249.72 120.09)" fill="url(#linear-gradient-55)" d="M241.51 61.37h16.42V178.8h-16.42z"/>
      <path fill="url(#linear-gradient-56)" d="M303.53 77.59h9.35v85h-9.35z"/>
      <path fill="url(#linear-gradient-57)" d="M285.2 65.24h6.46l3.22 5.59-3.22 5.6h-6.46l-3.23-5.6 3.23-5.59z"/>
      <path fill="url(#linear-gradient-58)" d="M286.47 67.45h3.91l1.95 3.38-1.95 3.39h-3.91l-1.95-3.39 1.95-3.38z"/>
      <path fill="url(#linear-gradient-59)" d="M285.2 84.94h6.46l3.22 5.59-3.22 5.6h-6.46l-3.23-5.6 3.23-5.59z"/>
      <path fill="url(#linear-gradient-60)" d="M286.47 87.15h3.91l1.95 3.38-1.95 3.39h-3.91l-1.95-3.39 1.95-3.38z"/>
      <path fill="url(#linear-gradient-61)" d="M285.2 144.05h6.46l3.22 5.59-3.22 5.6h-6.46l-3.23-5.6 3.23-5.59z"/>
      <path fill="url(#linear-gradient-62)" d="M286.47 146.26h3.91l1.95 3.38-1.95 3.39h-3.91l-1.95-3.39 1.95-3.38z"/>
      <path fill="url(#linear-gradient-63)" d="M285.2 104.64h6.46l3.22 5.6-3.22 5.59h-6.46l-3.23-5.59 3.23-5.6z"/>
      <path fill="url(#linear-gradient-64)" d="M286.47 106.85h3.91l1.95 3.39-1.95 3.38h-3.91l-1.95-3.38 1.95-3.39z"/>
      <path fill="url(#linear-gradient-65)" d="M285.2 124.34h6.46l3.22 5.6-3.22 5.59h-6.46l-3.23-5.59 3.23-5.6z"/>
      <path fill="url(#linear-gradient-66)" d="M286.47 126.55h3.91l1.95 3.39-1.95 3.38h-3.91l-1.95-3.38 1.95-3.39z"/>
      <path fill="url(#linear-gradient-67)" d="M285.2 163.75h6.46l3.22 5.59-3.22 5.6h-6.46l-3.23-5.6 3.23-5.59z"/>
      <path fill="url(#linear-gradient-68)" d="M286.47 165.96h3.91l1.95 3.38-1.95 3.39h-3.91l-1.95-3.39 1.95-3.38z"/>
      <path fill="url(#linear-gradient-69)" d="M174.12 162.16h25v180h-25z"/>
      <path fill="url(#linear-gradient-70)" d="M179.19 162.16h15v180h-15z"/>
      <path fill="url(#linear-gradient-71)" d="M159.12 342.16h55v20h-55z"/>
      <path fill="url(#linear-gradient-72)" d="M159.12 344.66h55v15h-55z"/>
      <path fill="url(#linear-gradient-73)" d="M166.62 362.16h40v125h-40z"/>
      <path style="mix-blend-mode:screen" fill="url(#linear-gradient-74)" opacity=".2" d="M172.62 362.16h6.27v125h-6.27z"/>
      <path style="mix-blend-mode:screen" fill="url(#linear-gradient-75)" opacity=".2" d="M183.49 362.16h6.27v125h-6.27z"/>
      <path style="mix-blend-mode:screen" fill="url(#linear-gradient-76)" opacity=".2" d="M194.35 362.16h6.27v125h-6.27z"/>
      <ellipse cx="187.58" cy="503.82" rx="15.54" ry="15.48" fill="url(#linear-gradient-77)"/>
      <path d="M178.28 468h9.51a7.16 7.16 0 017.16 7.16v40.68a7.16 7.16 0 01-7.16 7.16h-9.51v-55z" transform="rotate(90 186.62 495.49)" fill="url(#linear-gradient-78)"/>
      <ellipse cx="189.76" cy="531.13" rx="43.62" ry="7.5" style="mix-blend-mode:multiply" fill="url(#radial-gradient-2)"/>
    </g>
    <g id="axe">
      <path d="M742.17 135.94a97.25 97.25 0 01-34.36 74.28c-.3-.53-.61-1.05-.92-1.57s-.47-.77-.71-1.15-.57-.89-.86-1.34-.58-.88-.88-1.32a72.94 72.94 0 00-20.24-19.72 71.83 71.83 0 00-27.3-10.69c-1.15-.2-2.31-.37-3.47-.51a74.52 74.52 0 00-8.76-.52H642.14c-2.28.08-4.54.27-6.76.55q-1.75.22-3.48.54-2.61.45-5.16 1.11a72.62 72.62 0 00-42.28 29.84c-.26.39-.51.78-.76 1.17-.43.65-.84 1.3-1.23 2s-.63 1.06-.94 1.6q-3.39-2.88-6.49-6.06a94.66 94.66 0 01-7.63-8.75 97.16 97.16 0 01-20.18-56.15c0-1.1-.06-2.21-.06-3.32a97.25 97.25 0 0134.36-74.28q.48.86 1 1.68c.14.25.29.49.44.72.24.4.49.8.74 1.19s.51.77.77 1.15a72.77 72.77 0 0017.28 18 72 72 0 0019.47 10.18 70.58 70.58 0 0010.68 2.75q1.73.31 3.48.54 2.61.33 5.28.48c.53 0 1.06.06 1.59.07h2.42a74.52 74.52 0 008.76-.52c1.16-.14 2.32-.31 3.47-.51a71.78 71.78 0 0010.49-2.6A72.68 72.68 0 00704.44 67c.8-1.17 1.58-2.36 2.31-3.58.18-.29.36-.59.53-.89l.53-.91q.84.71 1.65 1.44c.66.58 1.31 1.18 1.95 1.78q.44.41.87.84a1.29 1.29 0 01.18.16c.34.32.68.66 1 1l.18.18c.55.55 1.1 1.11 1.63 1.67 1.81 1.91 3.55 3.88 5.2 5.93.52.63 1 1.28 1.53 1.93s.91 1.2 1.35 1.81c.58.79 1.14 1.58 1.69 2.38.44.63.86 1.27 1.27 1.91.54.81 1 1.62 1.56 2.45s.89 1.48 1.32 2.24.86 1.51 1.27 2.27.82 1.54 1.21 2.31q1 2 1.95 4.1l.42.94c.31.7.61 1.4.89 2.11s.56 1.39.83 2.09a.42.42 0 000 .1c.11.3.23.6.33.91q.35.92.66 1.83c.29.83.56 1.66.82 2.49.33 1 .64 2.09.94 3.14q.21.73.39 1.47c.24.91.47 1.82.67 2.73.1.4.19.8.27 1.21a.58.58 0 010 .18c0 .21.1.42.14.63a.5.5 0 010 .12c.08.38.16.75.23 1.13.26 1.32.49 2.66.69 4 .07.44.13.88.2 1.33s.12.88.17 1.33.11.92.17 1.38c.07.66.14 1.33.19 2s.14 1.6.18 2.41l.09 1.41c0 .75.06 1.5.08 2.26s.19 1.84.19 2.72z" fill="url(#linear-gradient-79)"/>
      <g style="mix-blend-mode:multiply" opacity=".4">
        <path d="M644.4 98.49c-1.25 0-2.5 0-3.73-.12 1.16.08 2.32.12 3.5.12z" fill="url(#linear-gradient-80)"/>
        <path d="M644.17 173.4c-1.18 0-2.34 0-3.5.12 1.23-.06 2.48-.11 3.73-.11z" fill="url(#linear-gradient-81)"/>
        <path d="M584.46 205.48c-.26.38-.52.77-.77 1.16-.42.65-.83 1.31-1.23 2s-.63 1.06-.94 1.6q-3.39-2.88-6.49-6.06a94.66 94.66 0 01-7.63-8.75 97.16 97.16 0 01-20.18-56.15c0-1.1-.06-2.21-.06-3.32a97.25 97.25 0 0134.36-74.28q.48.86 1 1.68c.14.25.29.49.44.72.24.4.49.8.74 1.19s.51.77.77 1.15c-14 15.75-23.3 37-25.16 60.71q-.34 4.37-.35 8.83a110.9 110.9 0 001.72 19.55 104.77 104.77 0 0012.41 34.21 96.66 96.66 0 006.52 9.86c1.55 2.03 3.17 4.01 4.85 5.9z" fill="url(#linear-gradient-82)"/>
        <path d="M742.17 135.94a97.25 97.25 0 01-34.36 74.28c-.3-.53-.61-1.05-.92-1.57s-.47-.77-.71-1.15-.57-.89-.86-1.34-.59-.87-.89-1.31c14.67-16.79 24-39.68 24.86-65.06.05-1.27.07-2.54.07-3.83A107.62 107.62 0 00716.84 85a95.86 95.86 0 00-9.25-14.19q-1.53-1.95-3.15-3.81c.8-1.17 1.58-2.36 2.31-3.58.18-.29.36-.59.53-.89l.53-.91q.84.71 1.65 1.44c.66.58 1.31 1.18 1.95 1.78q.44.41.87.84a1.29 1.29 0 01.18.16c.34.32.68.66 1 1l.18.18c.55.55 1.1 1.11 1.63 1.67 1.81 1.91 3.55 3.88 5.2 5.93.52.63 1 1.28 1.53 1.93s.91 1.2 1.35 1.81c.58.79 1.14 1.58 1.69 2.38.44.63.86 1.27 1.27 1.91.54.81 1 1.62 1.56 2.45s.89 1.48 1.32 2.24.86 1.51 1.27 2.27.82 1.54 1.21 2.31q1 2 1.95 4.1l.42.94c.31.7.61 1.4.89 2.11s.56 1.39.83 2.09a.42.42 0 000 .1c.11.3.23.6.33.91q.35.92.66 1.83c.29.83.56 1.66.82 2.49.33 1 .64 2.09.94 3.14q.21.73.39 1.47c.24.91.47 1.82.67 2.73.1.4.19.8.27 1.21a.58.58 0 010 .18c0 .21.1.42.14.63a.5.5 0 010 .12c.08.38.16.75.23 1.13.26 1.32.49 2.66.69 4 .07.44.13.88.2 1.33s.12.88.17 1.33.11.92.17 1.38c.07.66.14 1.33.19 2s.14 1.6.18 2.41l.09 1.41c0 .75.06 1.5.08 2.26s.19 1.84.19 2.72z" fill="url(#linear-gradient-83)"/>
      </g>
      <path class="cls-8" d="M601.75 84.43a72 72 0 0019.47 10.18l-60.54 60.88-9.18 9.23a96.45 96.45 0 01-4.27-25.46l12.08-12.15zM651.55 64.11l-.52.53-15.65 15.73-3.48 3.5v-9.5a12.5 12.5 0 0111-12.4h.44a6.4 6.4 0 01.88-.05h.43c.3 0 .6 0 .9.05h.44a12.33 12.33 0 015.56 2.14zM741.78 127.22l-12.48 12.55-45.1 45.34a71.83 71.83 0 00-27.3-10.69v38.15l-3.47 3.49-18 18.15-3.48 3.5v-63.18q-2.61.45-5.16 1.11l5.16-5.19 3.48-3.5 2.38-2.4 2.12-2.12 12.77-12.85.78-.78 3.47-3.49 1.4-1.4 12.77-12.85 2.11-2.12L716.84 85l6.56-6.61c.58.79 1.14 1.58 1.69 2.38.44.63.86 1.27 1.27 1.91.54.81 1 1.62 1.56 2.45s.89 1.48 1.32 2.24.86 1.51 1.27 2.27.82 1.54 1.21 2.31q1 2 1.95 4.1l.42.94c.31.7.61 1.4.89 2.11s.56 1.39.83 2.09a.42.42 0 000 .1c.11.3.23.6.33.91q.35.92.66 1.83c.29.83.56 1.66.82 2.49.33 1 .64 2.09.94 3.14q.21.73.39 1.47c.24.91.47 1.82.67 2.73.1.4.19.8.27 1.21a.58.58 0 010 .18c0 .21.1.42.14.63a.5.5 0 010 .12c.08.38.16.75.23 1.13.26 1.32.49 2.66.69 4 .07.44.13.88.2 1.33s.12.88.17 1.33.11.92.17 1.38c.17.71.24 1.38.29 2.05zM712.5 65.92l-4.91 4.93-40.78 41-2.18 2.19-6.74 6.78-1 1-3.47 3.49-3.88 3.89-2.26 2.27-6.91 7-2.25 2.26-2.75 2.77-3.47 3.5-2.94 3-6.63 6.67-2.17 2.18-40.55 40.78-4.57 4.6a94.66 94.66 0 01-7.63-8.75l5.68-5.71 44.78-45 2.12-2.13 4.93-5 7-7 3.48-3.5 10.86-10.92 4.93-5 2.12-2.13.14-.14 3.47-3.49 10.49-10.55A72.68 72.68 0 00704.44 67c.8-1.17 1.58-2.36 2.31-3.58.18-.29.36-.59.53-.89l.53-.91q.84.71 1.65 1.44c.66.58 1.31 1.18 1.95 1.78q.44.41.87.84a1.29 1.29 0 01.22.24z"/>
      <path d="M656.9 74.37v267.5h-25V74.37a12.5 12.5 0 0111-12.4h3.1a12.33 12.33 0 015.59 2.14 12.83 12.83 0 011.69 1.42 12.47 12.47 0 013.62 8.84z" fill="url(#linear-gradient-84)"/>
      <path d="M653.43 70.68v271.19h-18V70.68a8.82 8.82 0 017.42-8.68h.44a6.4 6.4 0 01.88-.05h.43c.3 0 .6 0 .9.05h.44a8.82 8.82 0 017.47 8.71z" style="mix-blend-mode:screen" fill="url(#linear-gradient-85)" opacity=".4"/>
      <path d="M680.19 135.94l-10.72-10.72c1.49-5.3 1.08-9.8-1.6-12.48s-7.17-3.08-12.47-1.59l-10.73-10.73-10.43 10.44c-5.66-1.77-10.49-1.47-13.31 1.34s-3.11 7.65-1.34 13.31l-10.44 10.43 10.44 10.44c-1.77 5.66-1.47 10.49 1.34 13.3s7.65 3.12 13.31 1.35l10.43 10.43 10.73-10.72c5.3 1.49 9.8 1.08 12.47-1.59s3.09-7.18 1.6-12.48z" fill="url(#linear-gradient-86)"/>
      <path d="M635.07 157.62l-1.73.54a18.65 18.65 0 01-5.56 1 6.49 6.49 0 01-4.73-1.57c-1.85-1.85-2.07-5.6-.6-10.28l.55-1.74-9.6-9.6 9.6-9.59-.55-1.74c-1.47-4.68-1.25-8.43.6-10.29a6.47 6.47 0 014.73-1.56 18.94 18.94 0 015.56 1l1.73.55 9.6-9.6 9.85 9.84 1.69-.47a18.24 18.24 0 014.81-.75 6.45 6.45 0 014.73 1.57c1.77 1.77 2.06 5.16.83 9.54l-.48 1.7 9.85 9.84-9.85 9.85.48 1.69c1.23 4.39.94 7.78-.83 9.54a6.4 6.4 0 01-4.72 1.57 18.2 18.2 0 01-4.81-.74l-1.69-.48-9.85 9.85z" style="mix-blend-mode:screen" opacity=".35" fill="url(#linear-gradient-87)"/>
      <path d="M637 149.67l-5.78 1.82a14.63 14.63 0 01-2.72.6 14 14 0 01.6-2.72l1.81-5.78-7.64-7.65 7.64-7.64-1.81-5.78a14.12 14.12 0 01-.6-2.72 14.63 14.63 0 012.72.6l5.78 1.81 7.64-7.64 7.8 7.79 5.64-1.58a13.12 13.12 0 012.17-.44 13.58 13.58 0 01-.44 2.17l-1.59 5.64 7.8 7.79-7.8 7.8 1.59 5.64a13.37 13.37 0 01.44 2.17 13.12 13.12 0 01-2.17-.44l-5.64-1.59-7.8 7.8z" fill="url(#linear-gradient-88)"/>
      <path fill="url(#linear-gradient-89)" d="M648.92 128.13h-9.03l-4.51 7.81 4.51 7.82h9.03l4.51-7.82-4.51-7.81z"/>
      <path fill="url(#linear-gradient-90)" d="M647.13 131.21h-5.46l-2.73 4.73 2.73 4.74h5.46l2.74-4.74-2.74-4.73z"/>
      <path fill="url(#linear-gradient-91)" d="M616.9 341.87h55v20h-55z"/>
      <path fill="url(#linear-gradient-92)" d="M616.9 344.37h55v15h-55z"/>
      <path fill="url(#linear-gradient-93)" d="M624.4 361.87h40v125h-40z"/>
      <path style="mix-blend-mode:screen" fill="url(#linear-gradient-94)" opacity=".2" d="M630.4 361.87h6.27v125h-6.27z"/>
      <path style="mix-blend-mode:screen" fill="url(#linear-gradient-95)" opacity=".2" d="M641.27 361.87h6.27v125h-6.27z"/>
      <path style="mix-blend-mode:screen" fill="url(#linear-gradient-96)" opacity=".2" d="M652.13 361.87h6.27v125h-6.27z"/>
      <ellipse cx="645.36" cy="503.54" rx="15.54" ry="15.48" fill="url(#linear-gradient-97)"/>
      <path d="M636.07 467.7h9.51a7.16 7.16 0 017.16 7.16v40.68a7.16 7.16 0 01-7.16 7.16h-9.51v-55z" transform="rotate(90 644.405 495.205)" fill="url(#linear-gradient-98)"/>
      <path fill="url(#linear-gradient-99)" d="M628.96 346.78h-5.88l-2.94 5.09 2.94 5.09h5.88l2.94-5.09-2.94-5.09z"/>
      <path fill="url(#linear-gradient-100)" d="M627.8 348.79h-3.55l-1.78 3.08 1.78 3.08h3.55l1.78-3.08-1.78-3.08z"/>
      <path fill="url(#linear-gradient-101)" d="M647.35 346.78h-5.88l-2.94 5.09 2.94 5.09h5.88l2.94-5.09-2.94-5.09z"/>
      <path fill="url(#linear-gradient-102)" d="M646.19 348.79h-3.56l-1.78 3.08 1.78 3.08h3.56l1.78-3.08-1.78-3.08z"/>
      <path fill="url(#linear-gradient-103)" d="M665.72 346.78h-5.88l-2.94 5.09 2.94 5.09h5.88l2.94-5.09-2.94-5.09z"/>
      <path fill="url(#linear-gradient-104)" d="M664.56 348.79H661l-1.77 3.08 1.77 3.08h3.56l1.78-3.08-1.78-3.08z"/>
      <ellipse cx="645.36" cy="530.84" rx="43.62" ry="7.5" style="mix-blend-mode:multiply" fill="url(#radial-gradient-3)"/>
    </g>
  </g>
</svg>
